<svg xmlns="http://www.w3.org/2000/svg" xmlns:v="https://svgstorm.com"
viewBox = "0 0 512 512"
width="512"
height="512">
<g fill="None" fill-opacity="0.0" stroke="#000000" stroke-opacity="0.00" stroke-width="0.3"><path d="
M 0.00 512.00 
L 126.00 512.00
C 115.03 505.47 121.72 486.87 120.00 476.00 C 118.28 465.13 120.82 463.05 120.00 454.00 C 119.18 444.95 120.39 441.30 120.00 433.00 C 119.61 424.70 120.89 421.74 118.07 413.93 C 115.26 406.12 116.18 406.26 113.07 396.93 C 109.96 387.60 106.34 374.19 103.07 364.93 C 99.81 355.66 101.41 355.31 98.07 347.93 C 94.74 340.55 97.44 338.53 93.07 331.93 C 88.71 325.32 94.35 320.99 95.00 316.00
C 95.58 311.57 90.90 306.52 91.00 302.00
C 78.07 303.67 79.76 281.01 75.02 271.98 C 70.29 262.94 68.62 246.49 64.02 235.98 C 59.43 225.46 58.51 209.31 66.25 199.25 C 74.00 189.20 85.06 183.46 98.00 184.00
C 94.30 167.99 90.90 151.45 89.01 134.99 C 87.11 118.53 86.30 96.85 89.00 81.00 C 91.70 65.15 96.84 53.54 108.75 42.75 C 120.66 31.96 140.12 30.78 155.07 34.93 C 170.03 39.07 174.39 20.63 188.69 14.69 C 203.00 8.76 222.13 5.73 237.67 10.33 C 253.21 14.93 265.95 18.92 280.00 27.00
C 288.25 14.65 300.20 1.95 315.00 0.00
L 0.00 0.00
L 0.00 512.00 Z"/>
</g>
<g fill="None" fill-opacity="0.0" stroke="#000000" stroke-opacity="1.00" stroke-width="0.3"><path d="
M 91.00 302.00 
C 101.67 300.62 94.39 286.71 92.22 279.78 C 90.05 272.84 87.55 262.11 84.68 254.32 C 81.81 246.54 80.25 237.36 77.02 228.98 C 73.79 220.59 74.40 210.24 82.00 204.00
C 89.06 198.20 103.00 196.47 109.25 204.75 C 115.49 213.03 117.30 225.80 130.00 217.00
C 126.53 231.35 122.60 245.84 128.32 259.68 C 134.04 273.51 136.26 287.07 140.98 301.02 C 145.69 314.98 150.04 328.59 153.00 343.00
C 142.27 345.74 131.70 349.04 121.00 352.00
C 119.00 352.61 116.89 352.93 115.00 354.00
C 108.45 342.03 112.00 318.11 95.00 316.00
C 94.35 320.99 88.71 325.32 93.07 331.93 C 97.44 338.53 94.74 340.55 98.07 347.93 C 101.41 355.31 99.81 355.66 103.07 364.93 C 106.34 374.19 109.96 387.60 113.07 396.93 C 116.18 406.26 115.26 406.12 118.07 413.93 C 120.89 421.74 119.61 424.70 120.00 433.00 C 120.39 441.30 119.18 444.95 120.00 454.00 C 120.82 463.05 118.28 465.13 120.00 476.00 C 121.72 486.87 115.03 505.47 126.00 512.00
L 387.00 512.00
C 426.91 503.35 411.94 451.66 414.00 421.00 C 416.06 390.34 395.70 362.09 371.00 346.00
C 401.70 328.19 416.96 292.97 414.00 258.00
C 421.38 255.89 429.39 252.85 434.75 246.75 C 440.12 240.65 444.11 233.13 444.98 224.98 C 445.84 216.82 444.07 205.76 438.25 199.75 C 432.42 193.75 430.45 187.05 420.77 185.23 C 411.10 183.41 412.97 171.43 412.02 161.98 C 411.08 152.52 412.04 141.25 410.00 132.00 C 407.96 122.75 407.61 113.98 414.92 107.92 C 422.23 101.85 423.79 96.79 429.25 90.25 C 434.71 83.72 437.54 78.08 441.77 70.77 C 446.00 63.47 448.58 56.24 450.93 47.93 C 453.28 39.61 451.41 30.24 445.25 23.75 C 439.08 17.26 429.93 15.83 421.93 18.93 C 413.92 22.02 407.78 25.86 401.00 31.00
C 403.61 16.84 395.09 2.01 381.00 0.00
L 374.00 0.00
C 359.48 1.55 347.28 11.24 337.00 22.00
C 336.56 11.61 328.05 1.49 318.00 0.00
L 315.00 0.00
C 300.20 1.95 288.25 14.65 280.00 27.00
C 265.95 18.92 253.21 14.93 237.67 10.33 C 222.13 5.73 203.00 8.76 188.69 14.69 C 174.39 20.63 170.03 39.07 155.07 34.93 C 140.12 30.78 120.66 31.96 108.75 42.75 C 96.84 53.54 91.70 65.15 89.00 81.00 C 86.30 96.85 87.11 118.53 89.01 134.99 C 90.90 151.45 94.30 167.99 98.00 184.00
C 85.06 183.46 74.00 189.20 66.25 199.25 C 58.51 209.31 59.43 225.46 64.02 235.98 C 68.62 246.49 70.29 262.94 75.02 271.98 C 79.76 281.01 78.07 303.67 91.00 302.00
M 321.00 18.00 
C 325.33 24.77 324.27 39.42 321.02 47.02 C 317.78 54.63 326.83 68.46 334.00 57.00
C 343.11 42.44 347.94 26.16 365.00 18.00
C 370.23 15.50 380.22 11.77 384.75 18.25 C 389.28 24.73 383.90 34.39 383.22 41.22 C 382.55 48.06 374.70 53.81 378.33 61.67 C 381.96 69.53 391.32 62.30 395.00 58.00
C 402.78 48.89 418.06 30.69 431.00 32.00
C 444.40 33.36 432.96 56.57 428.75 63.75 C 424.53 70.92 415.58 84.73 409.75 91.75 C 403.91 98.76 393.61 109.50 387.75 115.75 C 381.90 122.00 361.26 131.91 370.00 141.00
C 374.02 140.97 379.90 144.60 383.25 139.25 C 386.59 133.89 390.87 134.83 394.00 130.00
C 400.65 165.67 399.57 214.51 400.00 251.00 C 400.43 287.49 393.48 321.11 357.92 335.92 C 322.37 350.74 276.86 340.53 238.00 344.00
C 234.58 344.00 230.69 343.26 228.00 343.00
C 224.33 343.00 220.67 343.00 217.00 343.00
C 208.28 343.00 197.53 342.80 189.78 340.22 C 182.03 337.65 174.76 336.67 168.31 331.70 C 161.85 326.72 162.70 317.38 159.68 310.32 C 156.66 303.26 155.14 294.85 152.68 287.32 C 150.22 279.80 147.72 272.20 145.68 264.32 C 143.64 256.44 138.82 249.35 140.78 240.78 C 142.74 232.20 143.08 224.84 145.93 215.93 C 148.77 207.01 138.94 201.30 135.00 197.00
C 162.07 194.80 178.85 168.59 186.00 145.00
C 189.90 147.94 193.69 150.82 198.00 153.00
C 207.44 158.61 215.73 162.21 226.22 165.78 C 236.72 169.35 249.82 171.44 261.00 173.00 C 272.18 174.56 289.86 174.16 300.67 173.67 C 311.48 173.19 326.62 168.76 335.22 166.22 C 343.82 163.68 363.68 159.13 357.00 148.00
C 351.10 138.17 333.77 154.04 326.32 153.32 C 318.88 152.61 315.94 157.36 309.00 157.00 C 302.06 156.64 297.00 159.89 290.00 159.00 C 283.00 158.11 276.07 159.73 269.33 158.67 C 262.59 157.61 257.53 157.69 250.93 156.07 C 244.32 154.45 240.67 155.15 233.93 152.07 C 227.18 149.00 226.44 150.94 218.32 146.68 C 210.20 142.42 199.00 137.53 192.25 130.75 C 185.50 123.97 185.86 126.79 178.00 124.00
C 170.70 126.30 173.00 141.24 169.07 147.07 C 165.15 152.91 163.29 162.26 157.75 167.75 C 152.21 173.24 146.57 179.09 138.93 180.93 C 131.28 182.76 117.60 181.78 120.00 194.00
C 109.69 186.77 111.28 173.65 108.02 161.98 C 104.76 150.30 104.03 134.30 103.00 122.00 C 101.97 109.70 100.82 92.19 103.99 80.99 C 107.16 69.79 109.47 58.00 120.23 52.23 C 130.99 46.46 145.37 44.69 157.22 50.78 C 169.08 56.86 176.54 48.43 183.00 38.00
C 207.45 13.55 242.79 23.40 270.00 38.00
C 266.10 45.32 261.68 48.53 256.25 55.25 C 250.82 61.96 244.96 63.78 237.75 68.75 C 230.55 73.73 240.93 88.04 249.00 80.00
C 257.60 75.80 267.54 66.06 273.75 58.75 C 279.96 51.45 288.80 38.86 294.25 32.25 C 299.70 25.64 314.21 7.36 321.00 18.00
M 415.00 242.00 
C 415.00 227.67 415.00 213.33 415.00 199.00
C 434.78 204.41 435.32 236.99 415.00 242.00
M 332.00 391.00 
C 332.06 388.02 332.11 384.98 332.00 382.00
C 331.67 373.25 328.42 365.79 325.00 358.00
C 338.74 357.53 354.68 351.18 365.75 360.25 C 376.81 369.33 383.78 374.24 390.30 386.70 C 396.83 399.15 400.62 413.36 400.00 428.00
C 397.98 430.88 383.75 429.14 380.00 429.00 C 376.25 428.86 360.95 431.06 359.00 428.00
C 358.13 426.64 359.19 422.66 359.00 421.00
C 357.87 411.15 344.11 412.04 344.01 422.01 C 343.91 431.97 344.07 442.03 344.00 452.00
C 309.75 446.85 261.51 454.50 261.00 497.00
C 225.33 497.00 189.67 497.00 154.00 497.00
C 147.67 497.00 141.33 497.00 135.00 497.00
C 134.39 474.55 135.81 446.93 135.00 425.00 C 134.19 403.07 123.05 388.92 120.00 368.00
C 122.17 366.77 124.68 366.78 127.00 366.00
C 137.35 363.03 147.59 359.83 158.00 357.00
C 160.64 365.36 165.22 379.51 167.78 387.22 C 170.33 394.94 172.23 416.15 183.67 411.67 C 195.11 407.19 182.61 390.72 181.68 382.32 C 180.74 373.93 173.51 359.93 172.00 351.00
C 184.16 354.93 196.74 357.98 210.00 358.00
C 202.29 370.29 202.24 381.65 202.98 396.02 C 203.71 410.40 212.58 420.02 226.07 414.07 C 239.56 408.13 247.78 407.37 260.00 400.00
C 258.54 411.82 261.95 420.90 260.00 433.00 C 258.05 445.10 275.40 446.19 275.00 434.00 C 274.59 421.80 275.31 411.98 275.00 400.00
C 287.63 407.79 296.08 408.81 310.22 414.78 C 324.36 420.74 333.90 405.61 332.00 391.00
M 273.00 376.00 
C 269.26 376.61 265.67 376.60 262.00 376.00
C 250.69 375.39 239.60 369.35 234.00 359.00
C 256.00 359.00 278.00 359.00 300.00 359.00
C 296.05 369.68 283.60 375.15 273.00 376.00
M 317.00 382.00 
C 317.57 385.19 317.51 387.89 317.00 391.00
C 316.82 394.23 316.23 396.81 316.00 400.00
C 305.78 398.24 295.09 394.40 287.00 388.00
C 297.77 385.55 306.91 376.89 313.00 368.00
C 314.77 372.55 317.03 376.92 317.00 382.00
M 248.00 388.00 
C 242.71 393.40 237.68 393.04 230.92 396.92 C 224.17 400.81 216.55 400.31 217.07 390.93 C 217.60 381.54 217.47 377.07 221.00 369.00
C 228.32 376.22 236.62 386.01 248.00 388.00
M 400.00 444.00 
C 401.06 455.62 401.61 470.45 400.00 482.00
C 396.95 503.86 368.54 496.32 351.00 497.00 C 333.46 497.68 305.49 497.00 287.00 497.00
C 283.33 497.00 279.67 497.00 276.00 497.00
C 275.94 483.32 287.49 469.90 301.00 468.00
C 310.39 465.95 323.56 467.76 333.00 467.00 C 342.44 466.24 357.48 471.24 359.00 459.00
C 359.42 455.61 357.11 446.70 359.00 444.00
C 361.15 440.92 374.84 442.96 379.00 443.00 C 383.16 443.04 397.15 441.03 400.00 444.00 Z"/>
</g>
<g fill="None" fill-opacity="0.0" stroke="#000000" stroke-opacity="0.09" stroke-width="0.3"><path d="
M 374.00 0.00 
L 318.00 0.00
C 328.05 1.49 336.56 11.61 337.00 22.00
C 347.28 11.24 359.48 1.55 374.00 0.00 Z"/>
</g>
<g fill="None" fill-opacity="0.0" stroke="#000000" stroke-opacity="0.01" stroke-width="0.3"><path d="
M 387.00 512.00 
L 512.00 512.00
L 512.00 0.00
L 381.00 0.00
C 395.09 2.01 403.61 16.84 401.00 31.00
C 407.78 25.86 413.92 22.02 421.93 18.93 C 429.93 15.83 439.08 17.26 445.25 23.75 C 451.41 30.24 453.28 39.61 450.93 47.93 C 448.58 56.24 446.00 63.47 441.77 70.77 C 437.54 78.08 434.71 83.72 429.25 90.25 C 423.79 96.79 422.23 101.85 414.92 107.92 C 407.61 113.98 407.96 122.75 410.00 132.00 C 412.04 141.25 411.08 152.52 412.02 161.98 C 412.97 171.43 411.10 183.41 420.77 185.23 C 430.45 187.05 432.42 193.75 438.25 199.75 C 444.07 205.76 445.84 216.82 444.98 224.98 C 444.11 233.13 440.12 240.65 434.75 246.75 C 429.39 252.85 421.38 255.89 414.00 258.00
C 416.96 292.97 401.70 328.19 371.00 346.00
C 395.70 362.09 416.06 390.34 414.00 421.00 C 411.94 451.66 426.91 503.35 387.00 512.00 Z"/>
</g>
<g fill="None" fill-opacity="0.0" stroke="#443F44" stroke-opacity="1.00" stroke-width="0.3"><path d="
M 249.00 80.00 
C 259.71 79.39 274.57 81.02 283.25 72.25 C 291.93 63.47 296.98 57.33 301.77 46.77 C 306.56 36.21 311.50 26.56 316.00 16.00
C 318.19 15.24 319.32 17.30 321.00 18.00
C 314.21 7.36 299.70 25.64 294.25 32.25 C 288.80 38.86 279.96 51.45 273.75 58.75 C 267.54 66.06 257.60 75.80 249.00 80.00 Z"/>
</g>
<g fill="None" fill-opacity="0.0" stroke="#655D65" stroke-opacity="1.00" stroke-width="0.3"><path d="
M 365.00 18.00 
C 356.78 24.76 355.46 40.35 349.69 48.69 C 343.93 57.04 342.02 53.74 334.00 57.00
C 326.83 68.46 317.78 54.63 321.02 47.02 C 324.27 39.42 325.33 24.77 321.00 18.00
C 319.32 17.30 318.19 15.24 316.00 16.00
C 311.50 26.56 306.56 36.21 301.77 46.77 C 296.98 57.33 291.93 63.47 283.25 72.25 C 274.57 81.02 259.71 79.39 249.00 80.00
C 240.93 88.04 230.55 73.73 237.75 68.75 C 244.96 63.78 250.82 61.96 256.25 55.25 C 261.68 48.53 266.10 45.32 270.00 38.00
C 242.79 23.40 207.45 13.55 183.00 38.00
C 178.05 45.44 175.53 55.27 173.67 63.67 C 171.81 72.07 168.28 87.67 170.00 96.00 C 171.72 104.33 169.63 121.02 178.00 124.00
C 185.86 126.79 185.50 123.97 192.25 130.75 C 199.00 137.53 210.20 142.42 218.32 146.68 C 226.44 150.94 227.18 149.00 233.93 152.07 C 240.67 155.15 244.32 154.45 250.93 156.07 C 257.53 157.69 262.59 157.61 269.33 158.67 C 276.07 159.73 283.00 158.11 290.00 159.00 C 297.00 159.89 302.06 156.64 309.00 157.00 C 315.94 157.36 318.88 152.61 326.32 153.32 C 333.77 154.04 351.10 138.17 357.00 148.00
C 361.51 148.34 365.36 141.03 370.00 141.00
C 361.26 131.91 381.90 122.00 387.75 115.75 C 393.61 109.50 403.91 98.76 409.75 91.75 C 415.58 84.73 424.53 70.92 428.75 63.75 C 432.96 56.57 444.40 33.36 431.00 32.00
C 425.56 32.53 418.46 42.26 413.25 45.25 C 408.04 48.25 399.54 53.80 395.00 58.00
C 391.32 62.30 381.96 69.53 378.33 61.67 C 374.70 53.81 382.55 48.06 383.22 41.22 C 383.90 34.39 389.28 24.73 384.75 18.25 C 380.22 11.77 370.23 15.50 365.00 18.00 Z"/>
</g>
<g fill="None" fill-opacity="0.0" stroke="#443F44" stroke-opacity="1.00" stroke-width="0.3"><path d="
M 334.00 57.00 
C 342.02 53.74 343.93 57.04 349.69 48.69 C 355.46 40.35 356.78 24.76 365.00 18.00
C 347.94 26.16 343.11 42.44 334.00 57.00 Z"/>
</g>
<g fill="None" fill-opacity="0.0" stroke="#433E43" stroke-opacity="1.00" stroke-width="0.3"><path d="
M 395.00 58.00 
C 399.54 53.80 408.04 48.25 413.25 45.25 C 418.46 42.26 425.56 32.53 431.00 32.00
C 418.06 30.69 402.78 48.89 395.00 58.00 Z"/>
</g>
<g fill="None" fill-opacity="0.0" stroke="#443F44" stroke-opacity="1.00" stroke-width="0.3"><path d="
M 178.00 124.00 
C 169.63 121.02 171.72 104.33 170.00 96.00 C 168.28 87.67 171.81 72.07 173.67 63.67 C 175.53 55.27 178.05 45.44 183.00 38.00
C 176.54 48.43 169.08 56.86 157.22 50.78 C 145.37 44.69 130.99 46.46 120.23 52.23 C 109.47 58.00 107.16 69.79 103.99 80.99 C 100.82 92.19 101.97 109.70 103.00 122.00 C 104.03 134.30 104.76 150.30 108.02 161.98 C 111.28 173.65 109.69 186.77 120.00 194.00
C 117.60 181.78 131.28 182.76 138.93 180.93 C 146.57 179.09 152.21 173.24 157.75 167.75 C 163.29 162.26 165.15 152.91 169.07 147.07 C 173.00 141.24 170.70 126.30 178.00 124.00 Z"/>
</g>
<g fill="None" fill-opacity="0.0" stroke="#F0CFA4" stroke-opacity="1.00" stroke-width="0.3"><path d="
M 370.00 141.00 
C 365.36 141.03 361.51 148.34 357.00 148.00
C 363.68 159.13 343.82 163.68 335.22 166.22 C 326.62 168.76 311.48 173.19 300.67 173.67 C 289.86 174.16 272.18 174.56 261.00 173.00 C 249.82 171.44 236.72 169.35 226.22 165.78 C 215.73 162.21 207.44 158.61 198.00 153.00
C 200.33 158.10 197.11 166.44 197.00 172.00 C 196.89 177.56 198.80 187.66 197.00 193.00
C 208.51 185.42 214.58 201.07 215.00 210.00 C 215.41 218.93 207.02 235.53 196.00 227.00
C 197.98 235.13 195.28 245.70 196.00 254.00 C 196.72 262.30 196.01 272.14 197.00 280.00 C 197.99 287.86 198.07 298.11 199.98 305.02 C 201.88 311.94 203.19 320.08 206.77 325.23 C 210.35 330.38 211.34 340.53 217.00 343.00
C 220.67 343.00 224.33 343.00 228.00 343.00
C 231.42 343.00 235.31 343.74 238.00 344.00
C 276.86 340.53 322.37 350.74 357.92 335.92 C 393.48 321.11 400.43 287.49 400.00 251.00 C 399.57 214.51 400.65 165.67 394.00 130.00
C 390.87 134.83 386.59 133.89 383.25 139.25 C 379.90 144.60 374.02 140.97 370.00 141.00
M 335.00 191.00 
C 350.52 194.93 347.38 231.09 330.33 228.67 C 313.28 226.25 317.33 186.52 335.00 191.00
M 242.00 254.00 
C 248.30 255.88 248.68 266.92 256.70 269.30 C 264.71 271.69 273.46 271.89 280.70 267.70 C 287.93 263.50 288.53 251.80 298.00 254.00 C 307.48 256.20 301.82 268.68 296.75 273.75 C 291.67 278.81 285.54 282.55 277.98 284.98 C 270.41 287.41 259.95 287.14 252.31 283.69 C 244.66 280.25 240.76 275.78 235.23 269.77 C 229.70 263.76 230.66 250.61 242.00 254.00 Z"/>
</g>
<g fill="None" fill-opacity="0.0" stroke="#EFB885" stroke-opacity="1.00" stroke-width="0.3"><path d="
M 217.00 343.00 
C 211.34 340.53 210.35 330.38 206.77 325.23 C 203.19 320.08 201.88 311.94 199.98 305.02 C 198.07 298.11 197.99 287.86 197.00 280.00 C 196.01 272.14 196.72 262.30 196.00 254.00 C 195.28 245.70 197.98 235.13 196.00 227.00
C 194.64 221.44 188.51 216.77 190.00 210.00 C 191.49 203.23 190.65 197.18 197.00 193.00
C 198.80 187.66 196.89 177.56 197.00 172.00 C 197.11 166.44 200.33 158.10 198.00 153.00
C 193.69 150.82 189.90 147.94 186.00 145.00
C 178.85 168.59 162.07 194.80 135.00 197.00
C 138.94 201.30 148.77 207.01 145.93 215.93 C 143.08 224.84 142.74 232.20 140.78 240.78 C 138.82 249.35 143.64 256.44 145.68 264.32 C 147.72 272.20 150.22 279.80 152.68 287.32 C 155.14 294.85 156.66 303.26 159.68 310.32 C 162.70 317.38 161.85 326.72 168.31 331.70 C 174.76 336.67 182.03 337.65 189.78 340.22 C 197.53 342.80 208.28 343.00 217.00 343.00 Z"/>
</g>
<g fill="None" fill-opacity="0.0" stroke="#000000" stroke-opacity="1.00" stroke-width="0.3"><path d="
M 197.00 193.00 
C 190.65 197.18 191.49 203.23 190.00 210.00 C 188.51 216.77 194.64 221.44 196.00 227.00
C 207.02 235.53 215.41 218.93 215.00 210.00 C 214.58 201.07 208.51 185.42 197.00 193.00 Z"/>
</g>
<g fill="None" fill-opacity="0.0" stroke="#000000" stroke-opacity="1.00" stroke-width="0.3"><path d="
M 335.00 191.00 
C 317.33 186.52 313.28 226.25 330.33 228.67 C 347.38 231.09 350.52 194.93 335.00 191.00 Z"/>
</g>
<g fill="None" fill-opacity="0.0" stroke="#EFCEA4" stroke-opacity="1.00" stroke-width="0.3"><path d="
M 82.00 204.00 
C 74.61 214.99 84.48 230.60 86.99 242.01 C 89.50 253.42 95.40 266.74 98.33 278.67 C 101.25 290.61 106.59 303.11 109.78 315.22 C 112.97 327.34 117.55 339.90 121.00 352.00
C 131.70 349.04 142.27 345.74 153.00 343.00
C 150.04 328.59 145.69 314.98 140.98 301.02 C 136.26 287.07 134.04 273.51 128.32 259.68 C 122.60 245.84 126.53 231.35 130.00 217.00
C 117.30 225.80 115.49 213.03 109.25 204.75 C 103.00 196.47 89.06 198.20 82.00 204.00 Z"/>
</g>
<g fill="None" fill-opacity="0.0" stroke="#EDB684" stroke-opacity="1.00" stroke-width="0.3"><path d="
M 415.00 242.00 
C 435.32 236.99 434.78 204.41 415.00 199.00
C 415.00 213.33 415.00 227.67 415.00 242.00 Z"/>
</g>
<g fill="None" fill-opacity="0.0" stroke="#ECB684" stroke-opacity="1.00" stroke-width="0.3"><path d="
M 91.00 302.00 
C 90.90 306.52 95.58 311.57 95.00 316.00
C 112.00 318.11 108.45 342.03 115.00 354.00
C 116.89 352.93 119.00 352.61 121.00 352.00
C 117.55 339.90 112.97 327.34 109.78 315.22 C 106.59 303.11 101.25 290.61 98.33 278.67 C 95.40 266.74 89.50 253.42 86.99 242.01 C 84.48 230.60 74.61 214.99 82.00 204.00
C 74.40 210.24 73.79 220.59 77.02 228.98 C 80.25 237.36 81.81 246.54 84.68 254.32 C 87.55 262.11 90.05 272.84 92.22 279.78 C 94.39 286.71 101.67 300.62 91.00 302.00 Z"/>
</g>
<g fill="None" fill-opacity="0.0" stroke="#000000" stroke-opacity="1.00" stroke-width="0.3"><path d="
M 242.00 254.00 
C 230.66 250.61 229.70 263.76 235.23 269.77 C 240.76 275.78 244.66 280.25 252.31 283.69 C 259.95 287.14 270.41 287.41 277.98 284.98 C 285.54 282.55 291.67 278.81 296.75 273.75 C 301.82 268.68 307.48 256.20 298.00 254.00 C 288.53 251.80 287.93 263.50 280.70 267.70 C 273.46 271.89 264.71 271.69 256.70 269.30 C 248.68 266.92 248.30 255.88 242.00 254.00 Z"/>
</g>
<g fill="None" fill-opacity="0.0" stroke="#7B6B54" stroke-opacity="1.00" stroke-width="0.3"><path d="
M 238.00 344.00 
C 235.31 343.74 231.42 343.00 228.00 343.00
C 230.69 343.26 234.58 344.00 238.00 344.00 Z"/>
</g>
<g fill="None" fill-opacity="0.0" stroke="#6DC07C" stroke-opacity="1.00" stroke-width="0.3"><path d="
M 127.00 366.00 
C 122.37 371.46 132.26 383.22 132.78 390.22 C 133.29 397.22 138.27 407.02 140.31 414.69 C 142.34 422.37 145.69 431.16 147.33 439.67 C 148.97 448.18 151.60 457.67 152.00 467.00 C 152.40 476.33 154.91 487.16 154.00 497.00
C 189.67 497.00 225.33 497.00 261.00 497.00
C 261.51 454.50 309.75 446.85 344.00 452.00
C 344.07 442.03 343.91 431.97 344.01 422.01 C 344.11 412.04 357.87 411.15 359.00 421.00
C 364.33 421.00 369.67 421.00 375.00 421.00
C 375.00 423.33 375.00 425.67 375.00 428.00
C 383.33 428.00 391.67 428.00 400.00 428.00
C 400.62 413.36 396.83 399.15 390.30 386.70 C 383.78 374.24 376.81 369.33 365.75 360.25 C 354.68 351.18 338.74 357.53 325.00 358.00
C 328.42 365.79 331.67 373.25 332.00 382.00
C 332.43 385.04 332.36 388.05 332.00 391.00
C 333.90 405.61 324.36 420.74 310.22 414.78 C 296.08 408.81 287.63 407.79 275.00 400.00
C 275.31 411.98 274.59 421.80 275.00 434.00 C 275.40 446.19 258.05 445.10 260.00 433.00 C 261.95 420.90 258.54 411.82 260.00 400.00
C 247.78 407.37 239.56 408.13 226.07 414.07 C 212.58 420.02 203.71 410.40 202.98 396.02 C 202.24 381.65 202.29 370.29 210.00 358.00
C 196.74 357.98 184.16 354.93 172.00 351.00
C 173.51 359.93 180.74 373.93 181.68 382.32 C 182.61 390.72 195.11 407.19 183.67 411.67 C 172.23 416.15 170.33 394.94 167.78 387.22 C 165.22 379.51 160.64 365.36 158.00 357.00
C 147.59 359.83 137.35 363.03 127.00 366.00 Z"/>
</g>
<g fill="None" fill-opacity="0.0" stroke="#EEB784" stroke-opacity="1.00" stroke-width="0.3"><path d="
M 262.00 376.00 
C 265.59 376.19 269.41 376.19 273.00 376.00
C 283.60 375.15 296.05 369.68 300.00 359.00
C 278.00 359.00 256.00 359.00 234.00 359.00
C 239.60 369.35 250.69 375.39 262.00 376.00 Z"/>
</g>
<g fill="None" fill-opacity="0.0" stroke="#5DA46F" stroke-opacity="1.00" stroke-width="0.3"><path d="
M 154.00 497.00 
C 154.91 487.16 152.40 476.33 152.00 467.00 C 151.60 457.67 148.97 448.18 147.33 439.67 C 145.69 431.16 142.34 422.37 140.31 414.69 C 138.27 407.02 133.29 397.22 132.78 390.22 C 132.26 383.22 122.37 371.46 127.00 366.00
C 124.68 366.78 122.17 366.77 120.00 368.00
C 123.05 388.92 134.19 403.07 135.00 425.00 C 135.81 446.93 134.39 474.55 135.00 497.00
C 141.33 497.00 147.67 497.00 154.00 497.00 Z"/>
</g>
<g fill="None" fill-opacity="0.0" stroke="#5CA16D" stroke-opacity="1.00" stroke-width="0.3"><path d="
M 317.00 391.00 
C 317.16 388.08 317.20 384.92 317.00 382.00
C 317.03 376.92 314.77 372.55 313.00 368.00
C 306.91 376.89 297.77 385.55 287.00 388.00
C 295.09 394.40 305.78 398.24 316.00 400.00
C 316.23 396.81 316.82 394.23 317.00 391.00 Z"/>
</g>
<g fill="None" fill-opacity="0.0" stroke="#5BA16D" stroke-opacity="1.00" stroke-width="0.3"><path d="
M 248.00 388.00 
C 236.62 386.01 228.32 376.22 221.00 369.00
C 217.47 377.07 217.60 381.54 217.07 390.93 C 216.55 400.31 224.17 400.81 230.92 396.92 C 237.68 393.04 242.71 393.40 248.00 388.00 Z"/>
</g>
<g fill="None" fill-opacity="0.0" stroke="#795D43" stroke-opacity="1.00" stroke-width="0.3"><path d="
M 273.00 376.00 
C 269.41 376.19 265.59 376.19 262.00 376.00
C 265.67 376.60 269.26 376.61 273.00 376.00 Z"/>
</g>
<g fill="None" fill-opacity="0.0" stroke="#2E5137" stroke-opacity="1.00" stroke-width="0.3"><path d="
M 317.00 391.00 
C 317.51 387.89 317.57 385.19 317.00 382.00
C 317.20 384.92 317.16 388.08 317.00 391.00 Z"/>
</g>
<g fill="None" fill-opacity="0.0" stroke="#38633F" stroke-opacity="1.00" stroke-width="0.3"><path d="
M 332.00 391.00 
C 332.36 388.05 332.43 385.04 332.00 382.00
C 332.11 384.98 332.06 388.02 332.00 391.00 Z"/>
</g>
<g fill="None" fill-opacity="0.0" stroke="#5DA46F" stroke-opacity="1.00" stroke-width="0.3"><path d="
M 359.00 428.00 
C 364.33 428.00 369.67 428.00 375.00 428.00
C 375.00 425.67 375.00 423.33 375.00 421.00
C 369.67 421.00 364.33 421.00 359.00 421.00
C 359.19 422.66 358.13 426.64 359.00 428.00 Z"/>
</g>
<g fill="None" fill-opacity="0.0" stroke="#3D6C47" stroke-opacity="1.00" stroke-width="0.3"><path d="
M 400.00 428.00 
C 391.67 428.00 383.33 428.00 375.00 428.00
C 369.67 428.00 364.33 428.00 359.00 428.00
C 360.95 431.06 376.25 428.86 380.00 429.00 C 383.75 429.14 397.98 430.88 400.00 428.00 Z"/>
</g>
<g fill="None" fill-opacity="0.0" stroke="#5F4E3C" stroke-opacity="1.00" stroke-width="0.3"><path d="
M 359.00 444.00 
C 364.33 444.00 369.67 444.00 375.00 444.00
C 383.00 444.00 391.00 443.99 399.00 444.00
C 399.50 444.00 400.00 444.00 400.00 444.00
C 397.15 441.03 383.16 443.04 379.00 443.00 C 374.84 442.96 361.15 440.92 359.00 444.00 Z"/>
</g>
<g fill="None" fill-opacity="0.0" stroke="#EFB785" stroke-opacity="1.00" stroke-width="0.3"><path d="
M 359.00 459.00 
C 364.33 459.00 369.67 459.00 375.00 459.00
C 375.00 454.00 375.00 449.00 375.00 444.00
C 369.67 444.00 364.33 444.00 359.00 444.00
C 357.11 446.70 359.42 455.61 359.00 459.00 Z"/>
</g>
<g fill="None" fill-opacity="0.0" stroke="#F0CFA4" stroke-opacity="1.00" stroke-width="0.3"><path d="
M 359.00 459.00 
C 357.48 471.24 342.44 466.24 333.00 467.00 C 323.56 467.76 310.39 465.95 301.00 468.00
C 291.70 473.13 288.54 488.02 287.00 497.00
C 305.49 497.00 333.46 497.68 351.00 497.00 C 368.54 496.32 396.95 503.86 400.00 482.00
C 400.51 470.34 397.87 456.47 399.00 444.00
C 391.00 443.99 383.00 444.00 375.00 444.00
C 375.00 449.00 375.00 454.00 375.00 459.00
C 369.67 459.00 364.33 459.00 359.00 459.00 Z"/>
</g>
<g fill="None" fill-opacity="0.0" stroke="#AF9777" stroke-opacity="1.00" stroke-width="0.3"><path d="
M 400.00 482.00 
C 401.61 470.45 401.06 455.62 400.00 444.00
C 400.00 444.00 399.50 444.00 399.00 444.00
C 397.87 456.47 400.51 470.34 400.00 482.00 Z"/>
</g>
<g fill="None" fill-opacity="0.0" stroke="#ECB583" stroke-opacity="1.00" stroke-width="0.3"><path d="
M 287.00 497.00 
C 288.54 488.02 291.70 473.13 301.00 468.00
C 287.49 469.90 275.94 483.32 276.00 497.00
C 279.67 497.00 283.33 497.00 287.00 497.00 Z"/>
</g>
<g fill="#000000" fill-opacity="0.00" stroke="None">
<path d="
M 0.00 512.00 
L 126.00 512.00
C 115.03 505.47 121.72 486.87 120.00 476.00 C 118.28 465.13 120.82 463.05 120.00 454.00 C 119.18 444.95 120.39 441.30 120.00 433.00 C 119.61 424.70 120.89 421.74 118.07 413.93 C 115.26 406.12 116.18 406.26 113.07 396.93 C 109.96 387.60 106.34 374.19 103.07 364.93 C 99.81 355.66 101.41 355.31 98.07 347.93 C 94.74 340.55 97.44 338.53 93.07 331.93 C 88.71 325.32 94.35 320.99 95.00 316.00
C 95.58 311.57 90.90 306.52 91.00 302.00
C 78.07 303.67 79.76 281.01 75.02 271.98 C 70.29 262.94 68.62 246.49 64.02 235.98 C 59.43 225.46 58.51 209.31 66.25 199.25 C 74.00 189.20 85.06 183.46 98.00 184.00
C 94.30 167.99 90.90 151.45 89.01 134.99 C 87.11 118.53 86.30 96.85 89.00 81.00 C 91.70 65.15 96.84 53.54 108.75 42.75 C 120.66 31.96 140.12 30.78 155.07 34.93 C 170.03 39.07 174.39 20.63 188.69 14.69 C 203.00 8.76 222.13 5.73 237.67 10.33 C 253.21 14.93 265.95 18.92 280.00 27.00
C 288.25 14.65 300.20 1.95 315.00 0.00
L 0.00 0.00
L 0.00 512.00 Z"/>
</g>
<g fill="#000000" fill-opacity="1.00" stroke="None">
<path d="
M 91.00 302.00 
C 101.67 300.62 94.39 286.71 92.22 279.78 C 90.05 272.84 87.55 262.11 84.68 254.32 C 81.81 246.54 80.25 237.36 77.02 228.98 C 73.79 220.59 74.40 210.24 82.00 204.00
C 89.06 198.20 103.00 196.47 109.25 204.75 C 115.49 213.03 117.30 225.80 130.00 217.00
C 126.53 231.35 122.60 245.84 128.32 259.68 C 134.04 273.51 136.26 287.07 140.98 301.02 C 145.69 314.98 150.04 328.59 153.00 343.00
C 142.27 345.74 131.70 349.04 121.00 352.00
C 119.00 352.61 116.89 352.93 115.00 354.00
C 108.45 342.03 112.00 318.11 95.00 316.00
C 94.35 320.99 88.71 325.32 93.07 331.93 C 97.44 338.53 94.74 340.55 98.07 347.93 C 101.41 355.31 99.81 355.66 103.07 364.93 C 106.34 374.19 109.96 387.60 113.07 396.93 C 116.18 406.26 115.26 406.12 118.07 413.93 C 120.89 421.74 119.61 424.70 120.00 433.00 C 120.39 441.30 119.18 444.95 120.00 454.00 C 120.82 463.05 118.28 465.13 120.00 476.00 C 121.72 486.87 115.03 505.47 126.00 512.00
L 387.00 512.00
C 426.91 503.35 411.94 451.66 414.00 421.00 C 416.06 390.34 395.70 362.09 371.00 346.00
C 401.70 328.19 416.96 292.97 414.00 258.00
C 421.38 255.89 429.39 252.85 434.75 246.75 C 440.12 240.65 444.11 233.13 444.98 224.98 C 445.84 216.82 444.07 205.76 438.25 199.75 C 432.42 193.75 430.45 187.05 420.77 185.23 C 411.10 183.41 412.97 171.43 412.02 161.98 C 411.08 152.52 412.04 141.25 410.00 132.00 C 407.96 122.75 407.61 113.98 414.92 107.92 C 422.23 101.85 423.79 96.79 429.25 90.25 C 434.71 83.72 437.54 78.08 441.77 70.77 C 446.00 63.47 448.58 56.24 450.93 47.93 C 453.28 39.61 451.41 30.24 445.25 23.75 C 439.08 17.26 429.93 15.83 421.93 18.93 C 413.92 22.02 407.78 25.86 401.00 31.00
C 403.61 16.84 395.09 2.01 381.00 0.00
L 374.00 0.00
C 359.48 1.55 347.28 11.24 337.00 22.00
C 336.56 11.61 328.05 1.49 318.00 0.00
L 315.00 0.00
C 300.20 1.95 288.25 14.65 280.00 27.00
C 265.95 18.92 253.21 14.93 237.67 10.33 C 222.13 5.73 203.00 8.76 188.69 14.69 C 174.39 20.63 170.03 39.07 155.07 34.93 C 140.12 30.78 120.66 31.96 108.75 42.75 C 96.84 53.54 91.70 65.15 89.00 81.00 C 86.30 96.85 87.11 118.53 89.01 134.99 C 90.90 151.45 94.30 167.99 98.00 184.00
C 85.06 183.46 74.00 189.20 66.25 199.25 C 58.51 209.31 59.43 225.46 64.02 235.98 C 68.62 246.49 70.29 262.94 75.02 271.98 C 79.76 281.01 78.07 303.67 91.00 302.00
M 321.00 18.00 
C 325.33 24.77 324.27 39.42 321.02 47.02 C 317.78 54.63 326.83 68.46 334.00 57.00
C 343.11 42.44 347.94 26.16 365.00 18.00
C 370.23 15.50 380.22 11.77 384.75 18.25 C 389.28 24.73 383.90 34.39 383.22 41.22 C 382.55 48.06 374.70 53.81 378.33 61.67 C 381.96 69.53 391.32 62.30 395.00 58.00
C 402.78 48.89 418.06 30.69 431.00 32.00
C 444.40 33.36 432.96 56.57 428.75 63.75 C 424.53 70.92 415.58 84.73 409.75 91.75 C 403.91 98.76 393.61 109.50 387.75 115.75 C 381.90 122.00 361.26 131.91 370.00 141.00
C 374.02 140.97 379.90 144.60 383.25 139.25 C 386.59 133.89 390.87 134.83 394.00 130.00
C 400.65 165.67 399.57 214.51 400.00 251.00 C 400.43 287.49 393.48 321.11 357.92 335.92 C 322.37 350.74 276.86 340.53 238.00 344.00
C 234.58 344.00 230.69 343.26 228.00 343.00
C 224.33 343.00 220.67 343.00 217.00 343.00
C 208.28 343.00 197.53 342.80 189.78 340.22 C 182.03 337.65 174.76 336.67 168.31 331.70 C 161.85 326.72 162.70 317.38 159.68 310.32 C 156.66 303.26 155.14 294.85 152.68 287.32 C 150.22 279.80 147.72 272.20 145.68 264.32 C 143.64 256.44 138.82 249.35 140.78 240.78 C 142.74 232.20 143.08 224.84 145.93 215.93 C 148.77 207.01 138.94 201.30 135.00 197.00
C 162.07 194.80 178.85 168.59 186.00 145.00
C 189.90 147.94 193.69 150.82 198.00 153.00
C 207.44 158.61 215.73 162.21 226.22 165.78 C 236.72 169.35 249.82 171.44 261.00 173.00 C 272.18 174.56 289.86 174.16 300.67 173.67 C 311.48 173.19 326.62 168.76 335.22 166.22 C 343.82 163.68 363.68 159.13 357.00 148.00
C 351.10 138.17 333.77 154.04 326.32 153.32 C 318.88 152.61 315.94 157.36 309.00 157.00 C 302.06 156.64 297.00 159.89 290.00 159.00 C 283.00 158.11 276.07 159.73 269.33 158.67 C 262.59 157.61 257.53 157.69 250.93 156.07 C 244.32 154.45 240.67 155.15 233.93 152.07 C 227.18 149.00 226.44 150.94 218.32 146.68 C 210.20 142.42 199.00 137.53 192.25 130.75 C 185.50 123.97 185.86 126.79 178.00 124.00
C 170.70 126.30 173.00 141.24 169.07 147.07 C 165.15 152.91 163.29 162.26 157.75 167.75 C 152.21 173.24 146.57 179.09 138.93 180.93 C 131.28 182.76 117.60 181.78 120.00 194.00
C 109.69 186.77 111.28 173.65 108.02 161.98 C 104.76 150.30 104.03 134.30 103.00 122.00 C 101.97 109.70 100.82 92.19 103.99 80.99 C 107.16 69.79 109.47 58.00 120.23 52.23 C 130.99 46.46 145.37 44.69 157.22 50.78 C 169.08 56.86 176.54 48.43 183.00 38.00
C 207.45 13.55 242.79 23.40 270.00 38.00
C 266.10 45.32 261.68 48.53 256.25 55.25 C 250.82 61.96 244.96 63.78 237.75 68.75 C 230.55 73.73 240.93 88.04 249.00 80.00
C 257.60 75.80 267.54 66.06 273.75 58.75 C 279.96 51.45 288.80 38.86 294.25 32.25 C 299.70 25.64 314.21 7.36 321.00 18.00
M 415.00 242.00 
C 415.00 227.67 415.00 213.33 415.00 199.00
C 434.78 204.41 435.32 236.99 415.00 242.00
M 332.00 391.00 
C 332.06 388.02 332.11 384.98 332.00 382.00
C 331.67 373.25 328.42 365.79 325.00 358.00
C 338.74 357.53 354.68 351.18 365.75 360.25 C 376.81 369.33 383.78 374.24 390.30 386.70 C 396.83 399.15 400.62 413.36 400.00 428.00
C 397.98 430.88 383.75 429.14 380.00 429.00 C 376.25 428.86 360.95 431.06 359.00 428.00
C 358.13 426.64 359.19 422.66 359.00 421.00
C 357.87 411.15 344.11 412.04 344.01 422.01 C 343.91 431.97 344.07 442.03 344.00 452.00
C 309.75 446.85 261.51 454.50 261.00 497.00
C 225.33 497.00 189.67 497.00 154.00 497.00
C 147.67 497.00 141.33 497.00 135.00 497.00
C 134.39 474.55 135.81 446.93 135.00 425.00 C 134.19 403.07 123.05 388.92 120.00 368.00
C 122.17 366.77 124.68 366.78 127.00 366.00
C 137.35 363.03 147.59 359.83 158.00 357.00
C 160.64 365.36 165.22 379.51 167.78 387.22 C 170.33 394.94 172.23 416.15 183.67 411.67 C 195.11 407.19 182.61 390.72 181.68 382.32 C 180.74 373.93 173.51 359.93 172.00 351.00
C 184.16 354.93 196.74 357.98 210.00 358.00
C 202.29 370.29 202.24 381.65 202.98 396.02 C 203.71 410.40 212.58 420.02 226.07 414.07 C 239.56 408.13 247.78 407.37 260.00 400.00
C 258.54 411.82 261.95 420.90 260.00 433.00 C 258.05 445.10 275.40 446.19 275.00 434.00 C 274.59 421.80 275.31 411.98 275.00 400.00
C 287.63 407.79 296.08 408.81 310.22 414.78 C 324.36 420.74 333.90 405.61 332.00 391.00
M 273.00 376.00 
C 269.26 376.61 265.67 376.60 262.00 376.00
C 250.69 375.39 239.60 369.35 234.00 359.00
C 256.00 359.00 278.00 359.00 300.00 359.00
C 296.05 369.68 283.60 375.15 273.00 376.00
M 317.00 382.00 
C 317.57 385.19 317.51 387.89 317.00 391.00
C 316.82 394.23 316.23 396.81 316.00 400.00
C 305.78 398.24 295.09 394.40 287.00 388.00
C 297.77 385.55 306.91 376.89 313.00 368.00
C 314.77 372.55 317.03 376.92 317.00 382.00
M 248.00 388.00 
C 242.71 393.40 237.68 393.04 230.92 396.92 C 224.17 400.81 216.55 400.31 217.07 390.93 C 217.60 381.54 217.47 377.07 221.00 369.00
C 228.32 376.22 236.62 386.01 248.00 388.00
M 400.00 444.00 
C 401.06 455.62 401.61 470.45 400.00 482.00
C 396.95 503.86 368.54 496.32 351.00 497.00 C 333.46 497.68 305.49 497.00 287.00 497.00
C 283.33 497.00 279.67 497.00 276.00 497.00
C 275.94 483.32 287.49 469.90 301.00 468.00
C 310.39 465.95 323.56 467.76 333.00 467.00 C 342.44 466.24 357.48 471.24 359.00 459.00
C 359.42 455.61 357.11 446.70 359.00 444.00
C 361.15 440.92 374.84 442.96 379.00 443.00 C 383.16 443.04 397.15 441.03 400.00 444.00 Z"/>
</g>
<g fill="#000000" fill-opacity="0.09" stroke="None">
<path d="
M 374.00 0.00 
L 318.00 0.00
C 328.05 1.49 336.56 11.61 337.00 22.00
C 347.28 11.24 359.48 1.55 374.00 0.00 Z"/>
</g>
<g fill="#000000" fill-opacity="0.01" stroke="None">
<path d="
M 387.00 512.00 
L 512.00 512.00
L 512.00 0.00
L 381.00 0.00
C 395.09 2.01 403.61 16.84 401.00 31.00
C 407.78 25.86 413.92 22.02 421.93 18.93 C 429.93 15.83 439.08 17.26 445.25 23.75 C 451.41 30.24 453.28 39.61 450.93 47.93 C 448.58 56.24 446.00 63.47 441.77 70.77 C 437.54 78.08 434.71 83.72 429.25 90.25 C 423.79 96.79 422.23 101.85 414.92 107.92 C 407.61 113.98 407.96 122.75 410.00 132.00 C 412.04 141.25 411.08 152.52 412.02 161.98 C 412.97 171.43 411.10 183.41 420.77 185.23 C 430.45 187.05 432.42 193.75 438.25 199.75 C 444.07 205.76 445.84 216.82 444.98 224.98 C 444.11 233.13 440.12 240.65 434.75 246.75 C 429.39 252.85 421.38 255.89 414.00 258.00
C 416.96 292.97 401.70 328.19 371.00 346.00
C 395.70 362.09 416.06 390.34 414.00 421.00 C 411.94 451.66 426.91 503.35 387.00 512.00 Z"/>
</g>
<g fill="#443F44" fill-opacity="1.00" stroke="None">
<path d="
M 249.00 80.00 
C 259.71 79.39 274.57 81.02 283.25 72.25 C 291.93 63.47 296.98 57.33 301.77 46.77 C 306.56 36.21 311.50 26.56 316.00 16.00
C 318.19 15.24 319.32 17.30 321.00 18.00
C 314.21 7.36 299.70 25.64 294.25 32.25 C 288.80 38.86 279.96 51.45 273.75 58.75 C 267.54 66.06 257.60 75.80 249.00 80.00 Z"/>
</g>
<g fill="#655D65" fill-opacity="1.00" stroke="None">
<path d="
M 365.00 18.00 
C 356.78 24.76 355.46 40.35 349.69 48.69 C 343.93 57.04 342.02 53.74 334.00 57.00
C 326.83 68.46 317.78 54.63 321.02 47.02 C 324.27 39.42 325.33 24.77 321.00 18.00
C 319.32 17.30 318.19 15.24 316.00 16.00
C 311.50 26.56 306.56 36.21 301.77 46.77 C 296.98 57.33 291.93 63.47 283.25 72.25 C 274.57 81.02 259.71 79.39 249.00 80.00
C 240.93 88.04 230.55 73.73 237.75 68.75 C 244.96 63.78 250.82 61.96 256.25 55.25 C 261.68 48.53 266.10 45.32 270.00 38.00
C 242.79 23.40 207.45 13.55 183.00 38.00
C 178.05 45.44 175.53 55.27 173.67 63.67 C 171.81 72.07 168.28 87.67 170.00 96.00 C 171.72 104.33 169.63 121.02 178.00 124.00
C 185.86 126.79 185.50 123.97 192.25 130.75 C 199.00 137.53 210.20 142.42 218.32 146.68 C 226.44 150.94 227.18 149.00 233.93 152.07 C 240.67 155.15 244.32 154.45 250.93 156.07 C 257.53 157.69 262.59 157.61 269.33 158.67 C 276.07 159.73 283.00 158.11 290.00 159.00 C 297.00 159.89 302.06 156.64 309.00 157.00 C 315.94 157.36 318.88 152.61 326.32 153.32 C 333.77 154.04 351.10 138.17 357.00 148.00
C 361.51 148.34 365.36 141.03 370.00 141.00
C 361.26 131.91 381.90 122.00 387.75 115.75 C 393.61 109.50 403.91 98.76 409.75 91.75 C 415.58 84.73 424.53 70.92 428.75 63.75 C 432.96 56.57 444.40 33.36 431.00 32.00
C 425.56 32.53 418.46 42.26 413.25 45.25 C 408.04 48.25 399.54 53.80 395.00 58.00
C 391.32 62.30 381.96 69.53 378.33 61.67 C 374.70 53.81 382.55 48.06 383.22 41.22 C 383.90 34.39 389.28 24.73 384.75 18.25 C 380.22 11.77 370.23 15.50 365.00 18.00 Z"/>
</g>
<g fill="#443F44" fill-opacity="1.00" stroke="None">
<path d="
M 334.00 57.00 
C 342.02 53.74 343.93 57.04 349.69 48.69 C 355.46 40.35 356.78 24.76 365.00 18.00
C 347.94 26.16 343.11 42.44 334.00 57.00 Z"/>
</g>
<g fill="#433E43" fill-opacity="1.00" stroke="None">
<path d="
M 395.00 58.00 
C 399.54 53.80 408.04 48.25 413.25 45.25 C 418.46 42.26 425.56 32.53 431.00 32.00
C 418.06 30.69 402.78 48.89 395.00 58.00 Z"/>
</g>
<g fill="#443F44" fill-opacity="1.00" stroke="None">
<path d="
M 178.00 124.00 
C 169.63 121.02 171.72 104.33 170.00 96.00 C 168.28 87.67 171.81 72.07 173.67 63.67 C 175.53 55.27 178.05 45.44 183.00 38.00
C 176.54 48.43 169.08 56.86 157.22 50.78 C 145.37 44.69 130.99 46.46 120.23 52.23 C 109.47 58.00 107.16 69.79 103.99 80.99 C 100.82 92.19 101.97 109.70 103.00 122.00 C 104.03 134.30 104.76 150.30 108.02 161.98 C 111.28 173.65 109.69 186.77 120.00 194.00
C 117.60 181.78 131.28 182.76 138.93 180.93 C 146.57 179.09 152.21 173.24 157.75 167.75 C 163.29 162.26 165.15 152.91 169.07 147.07 C 173.00 141.24 170.70 126.30 178.00 124.00 Z"/>
</g>
<g fill="#F0CFA4" fill-opacity="1.00" stroke="None">
<path d="
M 370.00 141.00 
C 365.36 141.03 361.51 148.34 357.00 148.00
C 363.68 159.13 343.82 163.68 335.22 166.22 C 326.62 168.76 311.48 173.19 300.67 173.67 C 289.86 174.16 272.18 174.56 261.00 173.00 C 249.82 171.44 236.72 169.35 226.22 165.78 C 215.73 162.21 207.44 158.61 198.00 153.00
C 200.33 158.10 197.11 166.44 197.00 172.00 C 196.89 177.56 198.80 187.66 197.00 193.00
C 208.51 185.42 214.58 201.07 215.00 210.00 C 215.41 218.93 207.02 235.53 196.00 227.00
C 197.98 235.13 195.28 245.70 196.00 254.00 C 196.72 262.30 196.01 272.14 197.00 280.00 C 197.99 287.86 198.07 298.11 199.98 305.02 C 201.88 311.94 203.19 320.08 206.77 325.23 C 210.35 330.38 211.34 340.53 217.00 343.00
C 220.67 343.00 224.33 343.00 228.00 343.00
C 231.42 343.00 235.31 343.74 238.00 344.00
C 276.86 340.53 322.37 350.74 357.92 335.92 C 393.48 321.11 400.43 287.49 400.00 251.00 C 399.57 214.51 400.65 165.67 394.00 130.00
C 390.87 134.83 386.59 133.89 383.25 139.25 C 379.90 144.60 374.02 140.97 370.00 141.00
M 335.00 191.00 
C 350.52 194.93 347.38 231.09 330.33 228.67 C 313.28 226.25 317.33 186.52 335.00 191.00
M 242.00 254.00 
C 248.30 255.88 248.68 266.92 256.70 269.30 C 264.71 271.69 273.46 271.89 280.70 267.70 C 287.93 263.50 288.53 251.80 298.00 254.00 C 307.48 256.20 301.82 268.68 296.75 273.75 C 291.67 278.81 285.54 282.55 277.98 284.98 C 270.41 287.41 259.95 287.14 252.31 283.69 C 244.66 280.25 240.76 275.78 235.23 269.77 C 229.70 263.76 230.66 250.61 242.00 254.00 Z"/>
</g>
<g fill="#EFB885" fill-opacity="1.00" stroke="None">
<path d="
M 217.00 343.00 
C 211.34 340.53 210.35 330.38 206.77 325.23 C 203.19 320.08 201.88 311.94 199.98 305.02 C 198.07 298.11 197.99 287.86 197.00 280.00 C 196.01 272.14 196.72 262.30 196.00 254.00 C 195.28 245.70 197.98 235.13 196.00 227.00
C 194.64 221.44 188.51 216.77 190.00 210.00 C 191.49 203.23 190.65 197.18 197.00 193.00
C 198.80 187.66 196.89 177.56 197.00 172.00 C 197.11 166.44 200.33 158.10 198.00 153.00
C 193.69 150.82 189.90 147.94 186.00 145.00
C 178.85 168.59 162.07 194.80 135.00 197.00
C 138.94 201.30 148.77 207.01 145.93 215.93 C 143.08 224.84 142.74 232.20 140.78 240.78 C 138.82 249.35 143.64 256.44 145.68 264.32 C 147.72 272.20 150.22 279.80 152.68 287.32 C 155.14 294.85 156.66 303.26 159.68 310.32 C 162.70 317.38 161.85 326.72 168.31 331.70 C 174.76 336.67 182.03 337.65 189.78 340.22 C 197.53 342.80 208.28 343.00 217.00 343.00 Z"/>
</g>
<g fill="#000000" fill-opacity="1.00" stroke="None">
<path d="
M 197.00 193.00 
C 190.65 197.18 191.49 203.23 190.00 210.00 C 188.51 216.77 194.64 221.44 196.00 227.00
C 207.02 235.53 215.41 218.93 215.00 210.00 C 214.58 201.07 208.51 185.42 197.00 193.00 Z"/>
</g>
<g fill="#000000" fill-opacity="1.00" stroke="None">
<path d="
M 335.00 191.00 
C 317.33 186.52 313.28 226.25 330.33 228.67 C 347.38 231.09 350.52 194.93 335.00 191.00 Z"/>
</g>
<g fill="#EFCEA4" fill-opacity="1.00" stroke="None">
<path d="
M 82.00 204.00 
C 74.61 214.99 84.48 230.60 86.99 242.01 C 89.50 253.42 95.40 266.74 98.33 278.67 C 101.25 290.61 106.59 303.11 109.78 315.22 C 112.97 327.34 117.55 339.90 121.00 352.00
C 131.70 349.04 142.27 345.74 153.00 343.00
C 150.04 328.59 145.69 314.98 140.98 301.02 C 136.26 287.07 134.04 273.51 128.32 259.68 C 122.60 245.84 126.53 231.35 130.00 217.00
C 117.30 225.80 115.49 213.03 109.25 204.75 C 103.00 196.47 89.06 198.20 82.00 204.00 Z"/>
</g>
<g fill="#EDB684" fill-opacity="1.00" stroke="None">
<path d="
M 415.00 242.00 
C 435.32 236.99 434.78 204.41 415.00 199.00
C 415.00 213.33 415.00 227.67 415.00 242.00 Z"/>
</g>
<g fill="#ECB684" fill-opacity="1.00" stroke="None">
<path d="
M 91.00 302.00 
C 90.90 306.52 95.58 311.57 95.00 316.00
C 112.00 318.11 108.45 342.03 115.00 354.00
C 116.89 352.93 119.00 352.61 121.00 352.00
C 117.55 339.90 112.97 327.34 109.78 315.22 C 106.59 303.11 101.25 290.61 98.33 278.67 C 95.40 266.74 89.50 253.42 86.99 242.01 C 84.48 230.60 74.61 214.99 82.00 204.00
C 74.40 210.24 73.79 220.59 77.02 228.98 C 80.25 237.36 81.81 246.54 84.68 254.32 C 87.55 262.11 90.05 272.84 92.22 279.78 C 94.39 286.71 101.67 300.62 91.00 302.00 Z"/>
</g>
<g fill="#000000" fill-opacity="1.00" stroke="None">
<path d="
M 242.00 254.00 
C 230.66 250.61 229.70 263.76 235.23 269.77 C 240.76 275.78 244.66 280.25 252.31 283.69 C 259.95 287.14 270.41 287.41 277.98 284.98 C 285.54 282.55 291.67 278.81 296.75 273.75 C 301.82 268.68 307.48 256.20 298.00 254.00 C 288.53 251.80 287.93 263.50 280.70 267.70 C 273.46 271.89 264.71 271.69 256.70 269.30 C 248.68 266.92 248.30 255.88 242.00 254.00 Z"/>
</g>
<g fill="#7B6B54" fill-opacity="1.00" stroke="None">
<path d="
M 238.00 344.00 
C 235.31 343.74 231.42 343.00 228.00 343.00
C 230.69 343.26 234.58 344.00 238.00 344.00 Z"/>
</g>
<g fill="#6DC07C" fill-opacity="1.00" stroke="None">
<path d="
M 127.00 366.00 
C 122.37 371.46 132.26 383.22 132.78 390.22 C 133.29 397.22 138.27 407.02 140.31 414.69 C 142.34 422.37 145.69 431.16 147.33 439.67 C 148.97 448.18 151.60 457.67 152.00 467.00 C 152.40 476.33 154.91 487.16 154.00 497.00
C 189.67 497.00 225.33 497.00 261.00 497.00
C 261.51 454.50 309.75 446.85 344.00 452.00
C 344.07 442.03 343.91 431.97 344.01 422.01 C 344.11 412.04 357.87 411.15 359.00 421.00
C 364.33 421.00 369.67 421.00 375.00 421.00
C 375.00 423.33 375.00 425.67 375.00 428.00
C 383.33 428.00 391.67 428.00 400.00 428.00
C 400.62 413.36 396.83 399.15 390.30 386.70 C 383.78 374.24 376.81 369.33 365.75 360.25 C 354.68 351.18 338.74 357.53 325.00 358.00
C 328.42 365.79 331.67 373.25 332.00 382.00
C 332.43 385.04 332.36 388.05 332.00 391.00
C 333.90 405.61 324.36 420.74 310.22 414.78 C 296.08 408.81 287.63 407.79 275.00 400.00
C 275.31 411.98 274.59 421.80 275.00 434.00 C 275.40 446.19 258.05 445.10 260.00 433.00 C 261.95 420.90 258.54 411.82 260.00 400.00
C 247.78 407.37 239.56 408.13 226.07 414.07 C 212.58 420.02 203.71 410.40 202.98 396.02 C 202.24 381.65 202.29 370.29 210.00 358.00
C 196.74 357.98 184.16 354.93 172.00 351.00
C 173.51 359.93 180.74 373.93 181.68 382.32 C 182.61 390.72 195.11 407.19 183.67 411.67 C 172.23 416.15 170.33 394.94 167.78 387.22 C 165.22 379.51 160.64 365.36 158.00 357.00
C 147.59 359.83 137.35 363.03 127.00 366.00 Z"/>
</g>
<g fill="#EEB784" fill-opacity="1.00" stroke="None">
<path d="
M 262.00 376.00 
C 265.59 376.19 269.41 376.19 273.00 376.00
C 283.60 375.15 296.05 369.68 300.00 359.00
C 278.00 359.00 256.00 359.00 234.00 359.00
C 239.60 369.35 250.69 375.39 262.00 376.00 Z"/>
</g>
<g fill="#5DA46F" fill-opacity="1.00" stroke="None">
<path d="
M 154.00 497.00 
C 154.91 487.16 152.40 476.33 152.00 467.00 C 151.60 457.67 148.97 448.18 147.33 439.67 C 145.69 431.16 142.34 422.37 140.31 414.69 C 138.27 407.02 133.29 397.22 132.78 390.22 C 132.26 383.22 122.37 371.46 127.00 366.00
C 124.68 366.78 122.17 366.77 120.00 368.00
C 123.05 388.92 134.19 403.07 135.00 425.00 C 135.81 446.93 134.39 474.55 135.00 497.00
C 141.33 497.00 147.67 497.00 154.00 497.00 Z"/>
</g>
<g fill="#5CA16D" fill-opacity="1.00" stroke="None">
<path d="
M 317.00 391.00 
C 317.16 388.08 317.20 384.92 317.00 382.00
C 317.03 376.92 314.77 372.55 313.00 368.00
C 306.91 376.89 297.77 385.55 287.00 388.00
C 295.09 394.40 305.78 398.24 316.00 400.00
C 316.23 396.81 316.82 394.23 317.00 391.00 Z"/>
</g>
<g fill="#5BA16D" fill-opacity="1.00" stroke="None">
<path d="
M 248.00 388.00 
C 236.62 386.01 228.32 376.22 221.00 369.00
C 217.47 377.07 217.60 381.54 217.07 390.93 C 216.55 400.31 224.17 400.81 230.92 396.92 C 237.68 393.04 242.71 393.40 248.00 388.00 Z"/>
</g>
<g fill="#795D43" fill-opacity="1.00" stroke="None">
<path d="
M 273.00 376.00 
C 269.41 376.19 265.59 376.19 262.00 376.00
C 265.67 376.60 269.26 376.61 273.00 376.00 Z"/>
</g>
<g fill="#2E5137" fill-opacity="1.00" stroke="None">
<path d="
M 317.00 391.00 
C 317.51 387.89 317.57 385.19 317.00 382.00
C 317.20 384.92 317.16 388.08 317.00 391.00 Z"/>
</g>
<g fill="#38633F" fill-opacity="1.00" stroke="None">
<path d="
M 332.00 391.00 
C 332.36 388.05 332.43 385.04 332.00 382.00
C 332.11 384.98 332.06 388.02 332.00 391.00 Z"/>
</g>
<g fill="#5DA46F" fill-opacity="1.00" stroke="None">
<path d="
M 359.00 428.00 
C 364.33 428.00 369.67 428.00 375.00 428.00
C 375.00 425.67 375.00 423.33 375.00 421.00
C 369.67 421.00 364.33 421.00 359.00 421.00
C 359.19 422.66 358.13 426.64 359.00 428.00 Z"/>
</g>
<g fill="#3D6C47" fill-opacity="1.00" stroke="None">
<path d="
M 400.00 428.00 
C 391.67 428.00 383.33 428.00 375.00 428.00
C 369.67 428.00 364.33 428.00 359.00 428.00
C 360.95 431.06 376.25 428.86 380.00 429.00 C 383.75 429.14 397.98 430.88 400.00 428.00 Z"/>
</g>
<g fill="#5F4E3C" fill-opacity="1.00" stroke="None">
<path d="
M 359.00 444.00 
C 364.33 444.00 369.67 444.00 375.00 444.00
C 383.00 444.00 391.00 443.99 399.00 444.00
C 399.50 444.00 400.00 444.00 400.00 444.00
C 397.15 441.03 383.16 443.04 379.00 443.00 C 374.84 442.96 361.15 440.92 359.00 444.00 Z"/>
</g>
<g fill="#EFB785" fill-opacity="1.00" stroke="None">
<path d="
M 359.00 459.00 
C 364.33 459.00 369.67 459.00 375.00 459.00
C 375.00 454.00 375.00 449.00 375.00 444.00
C 369.67 444.00 364.33 444.00 359.00 444.00
C 357.11 446.70 359.42 455.61 359.00 459.00 Z"/>
</g>
<g fill="#F0CFA4" fill-opacity="1.00" stroke="None">
<path d="
M 359.00 459.00 
C 357.48 471.24 342.44 466.24 333.00 467.00 C 323.56 467.76 310.39 465.95 301.00 468.00
C 291.70 473.13 288.54 488.02 287.00 497.00
C 305.49 497.00 333.46 497.68 351.00 497.00 C 368.54 496.32 396.95 503.86 400.00 482.00
C 400.51 470.34 397.87 456.47 399.00 444.00
C 391.00 443.99 383.00 444.00 375.00 444.00
C 375.00 449.00 375.00 454.00 375.00 459.00
C 369.67 459.00 364.33 459.00 359.00 459.00 Z"/>
</g>
<g fill="#AF9777" fill-opacity="1.00" stroke="None">
<path d="
M 400.00 482.00 
C 401.61 470.45 401.06 455.62 400.00 444.00
C 400.00 444.00 399.50 444.00 399.00 444.00
C 397.87 456.47 400.51 470.34 400.00 482.00 Z"/>
</g>
<g fill="#ECB583" fill-opacity="1.00" stroke="None">
<path d="
M 287.00 497.00 
C 288.54 488.02 291.70 473.13 301.00 468.00
C 287.49 469.90 275.94 483.32 276.00 497.00
C 279.67 497.00 283.33 497.00 287.00 497.00 Z"/>
</g>
</svg>