<svg xmlns="http://www.w3.org/2000/svg" xmlns:v="https://svgstorm.com"
viewBox = "0 0 1000 1000"
width="1000"
height="1000">
<g fill="None" fill-opacity="0.0" stroke="#000000" stroke-opacity="0.00" stroke-width="0.3"><path d="
M 0.00 1000.00 
L 1000.00 1000.00
L 1000.00 0.00
L 0.00 0.00
L 0.00 1000.00
M 537.00 229.00 
C 542.20 233.85 548.45 238.57 553.00 244.00
C 553.23 244.28 553.68 244.81 554.00 245.00
C 558.42 247.64 561.99 252.73 565.00 257.00
C 565.21 257.30 565.79 257.73 566.00 258.00
C 570.81 258.01 580.30 272.08 584.00 276.00
C 585.40 277.17 586.58 278.23 588.00 280.00
C 597.36 288.65 607.07 297.39 616.00 307.00
C 617.32 308.42 617.98 309.72 619.00 311.00
C 622.20 314.00 628.44 317.56 630.00 322.00
C 630.40 322.20 631.00 322.00 631.00 322.00
C 642.93 331.09 653.72 345.52 664.00 356.00
C 668.08 359.10 670.90 362.26 674.00 366.00
C 680.64 371.82 689.64 381.06 697.00 388.00
C 702.72 393.39 709.83 398.11 714.00 405.00
C 715.06 406.75 715.33 407.82 716.00 410.00
C 717.47 414.80 716.13 416.90 715.00 421.00
C 714.04 458.05 671.27 478.41 651.30 503.30 C 631.34 528.20 601.59 550.23 580.00 575.00
C 572.88 583.17 564.20 590.51 557.00 598.00
C 554.72 600.38 552.38 602.50 550.00 605.00
C 538.71 616.86 528.79 631.34 512.00 634.00
C 508.93 634.89 506.36 636.74 502.00 636.00
C 499.99 635.66 498.03 634.59 496.00 634.00
C 491.98 632.83 489.26 632.26 486.00 630.00
C 478.12 624.54 470.73 616.24 470.00 607.00
C 469.45 605.86 467.50 605.53 467.00 604.00
C 465.87 600.58 467.17 594.74 468.00 592.00
C 473.49 573.92 489.04 560.34 502.70 547.70 C 516.36 535.06 528.05 519.55 543.00 508.00
C 543.13 507.65 543.80 507.27 544.00 507.00
C 555.94 490.78 571.36 478.61 585.10 465.10 C 598.83 451.59 615.20 435.02 631.00 424.00
C 631.20 423.60 631.00 423.00 631.00 423.00
C 629.82 422.68 629.86 422.41 629.00 422.00
C 620.70 418.06 615.27 412.52 609.25 405.75 C 603.23 398.98 596.67 393.76 591.70 388.29 C 586.73 382.82 578.97 376.32 573.75 370.25 C 568.54 364.18 560.72 358.59 555.25 351.75 C 549.77 344.92 542.37 341.72 538.10 334.90 C 533.83 328.08 522.15 324.07 520.00 316.00
C 513.04 310.98 508.45 303.67 500.75 297.25 C 493.06 290.82 489.25 284.03 482.08 277.92 C 474.90 271.82 468.24 261.90 466.00 253.00
C 465.19 249.79 466.20 245.51 467.00 243.00
C 471.41 229.23 478.71 215.91 495.01 212.01 C 511.31 208.11 527.53 217.58 537.00 229.00
M 496.00 367.00 
C 509.74 368.66 516.21 369.09 524.00 380.00
C 531.32 390.25 535.78 402.67 531.00 416.00
C 526.22 419.82 522.72 428.14 516.70 432.70 C 510.69 437.26 505.97 444.16 500.75 448.75 C 495.53 453.35 491.52 458.26 485.75 463.75 C 479.98 469.24 475.28 474.18 469.75 479.75 C 464.22 485.33 459.48 490.59 453.75 495.75 C 448.02 500.92 443.57 506.22 438.68 511.68 C 433.79 517.14 427.20 521.32 422.25 527.25 C 417.29 533.18 411.38 537.35 406.25 543.25 C 401.11 549.15 395.34 553.47 389.90 558.90 C 384.46 564.33 380.24 570.20 374.00 575.00
C 375.56 577.23 378.37 581.43 380.00 583.00
C 388.74 588.87 397.29 598.88 406.25 607.75 C 415.20 616.63 423.39 624.93 432.75 634.25 C 442.11 643.57 450.08 650.13 457.00 661.00
C 466.37 666.39 473.84 675.41 482.23 683.77 C 490.62 692.13 497.99 699.70 506.10 707.90 C 514.21 716.10 525.46 724.03 528.00 735.00
C 533.03 743.83 534.52 753.25 530.00 764.00
C 527.44 770.09 519.40 777.34 512.92 782.92 C 506.43 788.50 502.09 784.66 497.90 787.90 C 493.72 791.14 482.12 784.83 482.00 784.00
C 472.97 784.63 466.86 773.32 460.77 768.23 C 454.68 763.14 448.07 755.47 442.25 749.75 C 436.43 744.04 429.17 737.24 424.00 731.00
C 423.29 730.14 423.49 730.08 423.00 729.00
C 415.27 721.04 406.07 714.10 398.25 705.75 C 390.42 697.40 382.08 689.26 374.08 680.92 C 366.08 672.57 356.74 665.53 349.25 656.75 C 341.76 647.97 331.44 640.89 324.90 632.10 C 318.36 623.31 304.08 616.86 301.00 607.00
C 285.44 606.69 280.85 585.79 282.00 574.00 C 283.15 562.21 284.62 563.18 289.00 556.00
C 290.95 552.80 292.55 552.14 295.00 550.00
C 297.17 547.31 298.67 545.24 301.00 543.00
C 303.56 540.54 306.58 538.28 309.00 536.00
C 312.64 531.66 315.98 528.29 320.00 525.00
C 325.21 518.90 330.97 514.03 336.00 509.00
C 337.98 506.49 340.88 503.53 343.00 501.00
C 344.82 498.82 346.00 496.84 348.00 497.00
C 348.21 496.73 348.83 496.33 349.00 496.00
C 355.41 483.80 371.21 473.24 381.10 463.10 C 390.99 452.96 401.13 438.94 413.00 432.00
C 419.58 425.42 426.84 417.62 434.00 411.00
C 435.97 407.62 438.68 405.14 442.00 403.00
C 454.32 390.68 469.06 364.41 491.00 366.00
C 492.90 366.14 494.15 366.78 496.00 367.00 Z"/>
</g>
<g fill="None" fill-opacity="0.0" stroke="#5A9FF7" stroke-opacity="0.18" stroke-width="0.3"><path d="
M 467.00 243.00 
C 466.65 244.93 465.83 251.92 466.00 253.00
C 468.24 261.90 474.90 271.82 482.08 277.92 C 489.25 284.03 493.06 290.82 500.75 297.25 C 508.45 303.67 513.04 310.98 520.00 316.00
C 519.88 315.53 520.00 315.00 520.00 315.00
C 515.26 305.31 502.99 300.13 496.75 291.25 C 490.52 282.37 477.64 276.12 474.00 266.00
C 475.26 266.56 475.25 268.85 477.00 269.00
C 476.91 268.48 476.24 267.46 476.00 267.00
C 471.18 257.62 465.77 245.22 471.75 235.75 C 477.74 226.29 483.29 217.46 494.00 216.00
C 504.47 211.49 513.29 213.11 523.00 219.00
C 533.10 224.05 540.58 234.69 549.25 242.75 C 557.91 250.81 566.23 259.92 574.75 268.25 C 583.27 276.57 591.86 285.28 600.25 293.75 C 608.63 302.23 617.58 310.64 625.75 319.25 C 633.93 327.86 643.50 335.94 651.25 344.75 C 659.00 353.56 669.93 361.03 676.75 370.25 C 683.57 379.47 697.67 385.63 702.00 396.00
C 703.03 396.74 703.98 396.51 705.00 397.00
C 707.64 398.25 712.29 402.77 714.00 405.00
C 709.83 398.11 702.72 393.39 697.00 388.00
C 689.87 383.39 680.36 373.67 674.00 366.00
C 670.90 362.26 668.08 359.10 664.00 356.00
C 658.16 351.57 652.07 345.28 647.25 339.75 C 642.43 334.22 633.22 328.81 631.00 322.00
C 631.00 322.00 630.40 322.20 630.00 322.00
C 625.91 320.00 621.74 314.43 619.00 311.00
C 617.98 309.72 617.32 308.42 616.00 307.00
C 606.34 299.10 595.96 289.88 588.00 280.00
C 586.58 278.23 585.40 277.17 584.00 276.00
C 577.71 270.73 571.01 264.43 566.00 258.00
C 565.79 257.73 565.21 257.30 565.00 257.00
C 560.45 253.46 557.61 249.08 554.00 245.00
C 553.68 244.81 553.23 244.28 553.00 244.00
C 547.04 241.20 541.28 234.16 537.00 229.00
C 527.53 217.58 511.31 208.11 495.01 212.01 C 478.71 215.91 471.41 229.23 467.00 243.00 Z"/>
</g>
<g fill="None" fill-opacity="0.0" stroke="#3684F9" stroke-opacity="0.78" stroke-width="0.3"><path d="
M 494.00 216.00 
C 527.96 211.37 547.51 244.69 570.25 265.75 C 592.99 286.81 612.33 309.29 634.75 330.25 C 657.17 351.21 676.74 374.24 699.00 395.00
C 699.45 395.42 700.40 395.89 701.00 396.00
C 689.29 379.23 670.98 367.06 657.25 351.75 C 643.52 336.44 627.37 321.81 612.75 307.25 C 598.13 292.69 583.62 276.39 568.25 262.75 C 552.88 249.11 540.05 229.34 523.00 219.00
C 513.29 213.11 504.47 211.49 494.00 216.00 Z"/>
</g>
<g fill="None" fill-opacity="0.0" stroke="#1772FE" stroke-opacity="1.00" stroke-width="0.3"><path d="
M 476.00 267.00 
C 490.08 285.93 511.84 300.56 527.25 318.75 C 542.65 336.95 563.78 351.97 578.75 370.25 C 593.73 388.53 618.19 403.05 629.00 422.00
C 629.86 422.41 629.82 422.68 631.00 423.00
C 630.81 422.95 633.60 424.00 633.00 424.00
C 643.08 413.92 647.90 407.20 659.25 398.25 C 670.59 389.29 685.50 390.44 699.00 395.00
C 676.74 374.24 657.17 351.21 634.75 330.25 C 612.33 309.29 592.99 286.81 570.25 265.75 C 547.51 244.69 527.96 211.37 494.00 216.00
C 483.29 217.46 477.74 226.29 471.75 235.75 C 465.77 245.22 471.18 257.62 476.00 267.00 Z"/>
</g>
<g fill="None" fill-opacity="0.0" stroke="#448DF7" stroke-opacity="0.54" stroke-width="0.3"><path d="
M 701.00 396.00 
C 701.48 396.09 702.00 396.00 702.00 396.00
C 697.67 385.63 683.57 379.47 676.75 370.25 C 669.93 361.03 659.00 353.56 651.25 344.75 C 643.50 335.94 633.93 327.86 625.75 319.25 C 617.58 310.64 608.63 302.23 600.25 293.75 C 591.86 285.28 583.27 276.57 574.75 268.25 C 566.23 259.92 557.91 250.81 549.25 242.75 C 540.58 234.69 533.10 224.05 523.00 219.00
C 540.05 229.34 552.88 249.11 568.25 262.75 C 583.62 276.39 598.13 292.69 612.75 307.25 C 627.37 321.81 643.52 336.44 657.25 351.75 C 670.98 367.06 689.29 379.23 701.00 396.00 Z"/>
</g>
<g fill="None" fill-opacity="0.0" stroke="#85BAFC" stroke-opacity="0.04" stroke-width="0.3"><path d="
M 553.00 244.00 
C 548.45 238.57 542.20 233.85 537.00 229.00
C 541.28 234.16 547.04 241.20 553.00 244.00 Z"/>
</g>
<g fill="None" fill-opacity="0.0" stroke="#F0FFFF" stroke-opacity="0.01" stroke-width="0.3"><path d="
M 466.00 253.00 
C 465.83 251.92 466.65 244.93 467.00 243.00
C 466.20 245.51 465.19 249.79 466.00 253.00 Z"/>
</g>
<g fill="None" fill-opacity="0.0" stroke="#82C6FF" stroke-opacity="0.03" stroke-width="0.3"><path d="
M 565.00 257.00 
C 561.99 252.73 558.42 247.64 554.00 245.00
C 557.61 249.08 560.45 253.46 565.00 257.00 Z"/>
</g>
<g fill="None" fill-opacity="0.0" stroke="#6DB5FD" stroke-opacity="0.04" stroke-width="0.3"><path d="
M 566.00 258.00 
C 571.01 264.43 577.71 270.73 584.00 276.00
C 580.30 272.08 570.81 258.01 566.00 258.00 Z"/>
</g>
<g fill="None" fill-opacity="0.0" stroke="#468DF4" stroke-opacity="0.40" stroke-width="0.3"><path d="
M 520.00 315.00 
C 528.39 323.39 537.98 335.81 548.00 342.00
C 541.25 333.32 531.89 326.62 524.75 318.25 C 517.61 309.88 507.37 302.92 500.75 294.25 C 494.13 285.58 481.72 279.67 477.00 270.00
C 476.80 269.60 477.00 269.00 477.00 269.00
C 475.25 268.85 475.26 266.56 474.00 266.00
C 477.64 276.12 490.52 282.37 496.75 291.25 C 502.99 300.13 515.26 305.31 520.00 315.00 Z"/>
</g>
<g fill="None" fill-opacity="0.0" stroke="#267BFB" stroke-opacity="0.90" stroke-width="0.3"><path d="
M 477.00 269.00 
C 477.00 269.00 476.80 269.60 477.00 270.00
C 496.01 283.28 509.98 304.08 527.25 319.75 C 544.52 335.42 561.53 353.37 577.75 370.25 C 593.97 387.13 613.68 402.62 628.00 421.00
C 628.30 420.95 628.93 422.02 629.00 422.00
C 618.19 403.05 593.73 388.53 578.75 370.25 C 563.78 351.97 542.65 336.95 527.25 318.75 C 511.84 300.56 490.08 285.93 476.00 267.00
C 476.24 267.46 476.91 268.48 477.00 269.00 Z"/>
</g>
<g fill="None" fill-opacity="0.0" stroke="#3A86F6" stroke-opacity="0.69" stroke-width="0.3"><path d="
M 548.00 342.00 
C 548.32 342.20 548.80 342.68 549.00 343.00
C 577.26 365.01 599.89 395.66 626.00 420.00
C 626.45 420.28 627.43 421.10 628.00 421.00
C 613.68 402.62 593.97 387.13 577.75 370.25 C 561.53 353.37 544.52 335.42 527.25 319.75 C 509.98 304.08 496.01 283.28 477.00 270.00
C 481.72 279.67 494.13 285.58 500.75 294.25 C 507.37 302.92 517.61 309.88 524.75 318.25 C 531.89 326.62 541.25 333.32 548.00 342.00 Z"/>
</g>
<g fill="None" fill-opacity="0.0" stroke="#70B8FF" stroke-opacity="0.04" stroke-width="0.3"><path d="
M 616.00 307.00 
C 607.07 297.39 597.36 288.65 588.00 280.00
C 595.96 289.88 606.34 299.10 616.00 307.00 Z"/>
</g>
<g fill="None" fill-opacity="0.0" stroke="#7EB7FF" stroke-opacity="0.04" stroke-width="0.3"><path d="
M 630.00 322.00 
C 628.44 317.56 622.20 314.00 619.00 311.00
C 621.74 314.43 625.91 320.00 630.00 322.00 Z"/>
</g>
<g fill="None" fill-opacity="0.0" stroke="#6BAAFB" stroke-opacity="0.07" stroke-width="0.3"><path d="
M 520.00 316.00 
C 522.15 324.07 533.83 328.08 538.10 334.90 C 542.37 341.72 549.77 344.92 555.25 351.75 C 560.72 358.59 568.54 364.18 573.75 370.25 C 578.97 376.32 586.73 382.82 591.70 388.29 C 596.67 393.76 603.23 398.98 609.25 405.75 C 615.27 412.52 620.70 418.06 629.00 422.00
C 628.93 422.02 628.30 420.95 628.00 421.00
C 627.43 421.10 626.45 420.28 626.00 420.00
C 616.10 413.98 608.91 402.55 600.25 394.75 C 591.59 386.95 582.59 377.94 574.75 369.25 C 566.92 360.55 555.12 352.89 549.00 343.00
C 548.80 342.68 548.32 342.20 548.00 342.00
C 537.98 335.81 528.39 323.39 520.00 315.00
C 520.00 315.00 519.88 315.53 520.00 316.00 Z"/>
</g>
<g fill="None" fill-opacity="0.0" stroke="#65B6FE" stroke-opacity="0.04" stroke-width="0.3"><path d="
M 664.00 356.00 
C 653.72 345.52 642.93 331.09 631.00 322.00
C 633.22 328.81 642.43 334.22 647.25 339.75 C 652.07 345.28 658.16 351.57 664.00 356.00 Z"/>
</g>
<g fill="None" fill-opacity="0.0" stroke="#478DF4" stroke-opacity="0.40" stroke-width="0.3"><path d="
M 626.00 420.00 
C 599.89 395.66 577.26 365.01 549.00 343.00
C 555.12 352.89 566.92 360.55 574.75 369.25 C 582.59 377.94 591.59 386.95 600.25 394.75 C 608.91 402.55 616.10 413.98 626.00 420.00 Z"/>
</g>
<g fill="None" fill-opacity="0.0" stroke="#89C1FC" stroke-opacity="0.04" stroke-width="0.3"><path d="
M 674.00 366.00 
C 680.36 373.67 689.87 383.39 697.00 388.00
C 689.64 381.06 680.64 371.82 674.00 366.00 Z"/>
</g>
<g fill="None" fill-opacity="0.0" stroke="#3073BE" stroke-opacity="0.11" stroke-width="0.3"><path d="
M 442.00 403.00 
C 457.93 392.72 470.71 366.25 491.00 366.00
C 469.06 364.41 454.32 390.68 442.00 403.00 Z"/>
</g>
<g fill="None" fill-opacity="0.0" stroke="#215AAC" stroke-opacity="0.51" stroke-width="0.3"><path d="
M 442.00 403.00 
C 438.68 405.14 435.97 407.62 434.00 411.00
C 430.24 417.42 419.27 428.33 413.00 432.00
C 401.13 438.94 390.99 452.96 381.10 463.10 C 371.21 473.24 355.41 483.80 349.00 496.00
C 342.72 507.92 326.96 516.92 317.75 528.75 C 308.54 540.59 291.55 549.99 286.00 564.00
C 298.02 544.33 320.22 530.53 335.75 512.75 C 351.28 494.97 370.13 478.88 386.75 461.75 C 403.37 444.62 419.71 427.86 437.25 411.25 C 454.79 394.63 471.09 368.01 497.00 369.00
C 496.51 368.80 496.32 367.26 496.00 367.00
C 494.15 366.78 492.90 366.14 491.00 366.00
C 470.71 366.25 457.93 392.72 442.00 403.00 Z"/>
</g>
<g fill="None" fill-opacity="0.0" stroke="#2360B3" stroke-opacity="0.32" stroke-width="0.3"><path d="
M 497.00 369.00 
C 508.54 369.44 515.98 373.98 524.00 383.00
C 523.92 382.65 524.53 381.32 524.00 380.00
C 516.21 369.09 509.74 368.66 496.00 367.00
C 496.32 367.26 496.51 368.80 497.00 369.00 Z"/>
</g>
<g fill="None" fill-opacity="0.0" stroke="#0D47A1" stroke-opacity="1.00" stroke-width="0.3"><path d="
M 286.00 564.00 
C 279.58 580.20 288.91 596.49 302.00 607.00
C 302.30 607.24 303.00 607.00 303.00 607.00
C 303.80 607.14 304.16 607.85 305.00 608.00
C 305.48 608.09 306.00 608.00 306.00 608.00
C 317.21 615.06 336.30 608.31 344.75 599.75 C 353.20 591.20 362.56 582.44 371.00 574.00
C 421.24 523.75 472.02 473.41 522.00 423.00
C 522.69 422.09 523.24 421.71 524.00 421.00
C 525.56 419.55 526.12 417.85 527.00 416.00
C 527.46 413.94 528.06 410.03 529.00 407.00
C 529.54 403.95 527.36 396.55 529.00 395.00
C 529.65 390.65 526.75 386.09 524.00 383.00
C 515.98 373.98 508.54 369.44 497.00 369.00
C 471.09 368.01 454.79 394.63 437.25 411.25 C 419.71 427.86 403.37 444.62 386.75 461.75 C 370.13 478.88 351.28 494.97 335.75 512.75 C 320.22 530.53 298.02 544.33 286.00 564.00 Z"/>
</g>
<g fill="None" fill-opacity="0.0" stroke="#336DB9" stroke-opacity="0.09" stroke-width="0.3"><path d="
M 524.00 383.00 
C 526.75 386.09 529.65 390.65 529.00 395.00
C 528.93 395.49 529.00 396.00 529.00 396.00
C 535.15 398.80 528.76 412.31 527.00 416.00
C 526.12 417.85 525.56 419.55 524.00 421.00
C 522.23 424.39 518.69 428.28 515.00 432.00
C 506.03 441.06 496.86 454.28 486.00 461.00
C 485.68 461.20 485.20 461.68 485.00 462.00
C 480.81 468.78 472.89 474.59 467.25 480.25 C 461.60 485.90 455.72 493.84 449.00 498.00
C 448.68 498.20 448.20 498.68 448.00 499.00
C 445.65 502.80 440.74 507.69 437.00 510.00
C 436.68 510.20 436.20 510.68 436.00 511.00
C 432.63 516.44 426.42 520.62 422.00 525.00
C 419.93 527.40 417.16 529.82 415.00 532.00
C 408.75 538.31 402.58 547.32 395.00 552.00
C 394.68 552.20 394.20 552.68 394.00 553.00
C 391.31 557.35 386.51 560.53 383.00 564.00
C 380.17 567.27 374.30 570.96 373.00 575.00
C 373.50 575.00 374.00 575.00 374.00 575.00
C 380.24 570.20 384.46 564.33 389.90 558.90 C 395.34 553.47 401.11 549.15 406.25 543.25 C 411.38 537.35 417.29 533.18 422.25 527.25 C 427.20 521.32 433.79 517.14 438.68 511.68 C 443.57 506.22 448.02 500.92 453.75 495.75 C 459.48 490.59 464.22 485.33 469.75 479.75 C 475.28 474.18 479.98 469.24 485.75 463.75 C 491.52 458.26 495.53 453.35 500.75 448.75 C 505.97 444.16 510.69 437.26 516.70 432.70 C 522.72 428.14 526.22 419.82 531.00 416.00
C 535.78 402.67 531.32 390.25 524.00 380.00
C 524.53 381.32 523.92 382.65 524.00 383.00 Z"/>
</g>
<g fill="None" fill-opacity="0.0" stroke="#0D47A1" stroke-opacity="1.00" stroke-width="0.3"><path d="
M 633.00 424.00 
C 630.67 426.33 628.49 428.88 626.00 431.00
C 608.41 448.59 590.14 467.10 573.08 485.08 C 556.02 503.06 534.67 519.63 519.25 538.25 C 503.82 556.86 474.09 572.86 472.00 598.00
C 472.00 625.23 503.89 638.05 525.00 624.00
C 538.33 613.58 548.45 598.59 561.25 587.25 C 574.04 575.90 586.00 562.20 598.25 550.25 C 610.49 538.30 623.08 526.11 634.75 513.75 C 646.43 501.39 661.00 489.58 671.75 476.75 C 682.50 463.93 700.15 452.99 708.00 441.00
C 711.06 435.34 711.99 427.37 714.00 421.00
C 714.21 411.31 707.34 403.65 702.00 396.00
C 702.00 396.00 701.48 396.09 701.00 396.00
C 700.40 395.89 699.45 395.42 699.00 395.00
C 685.50 390.44 670.59 389.29 659.25 398.25 C 647.90 407.20 643.08 413.92 633.00 424.00 Z"/>
</g>
<g fill="None" fill-opacity="0.0" stroke="#1E54A9" stroke-opacity="0.82" stroke-width="0.3"><path d="
M 529.00 407.00 
C 529.97 403.90 530.94 399.39 529.00 396.00
C 529.00 396.00 528.93 395.49 529.00 395.00
C 527.36 396.55 529.54 403.95 529.00 407.00 Z"/>
</g>
<g fill="None" fill-opacity="0.0" stroke="#2357AA" stroke-opacity="0.62" stroke-width="0.3"><path d="
M 529.00 407.00 
C 528.06 410.03 527.46 413.94 527.00 416.00
C 528.76 412.31 535.15 398.80 529.00 396.00
C 530.94 399.39 529.97 403.90 529.00 407.00 Z"/>
</g>
<g fill="None" fill-opacity="0.0" stroke="#3464B1" stroke-opacity="0.78" stroke-width="0.3"><path d="
M 714.00 421.00 
C 714.15 420.52 714.94 419.20 715.00 419.00
C 715.00 418.50 714.83 417.43 715.00 417.00
C 713.34 411.20 710.99 400.77 705.00 397.00
C 703.98 396.51 703.03 396.74 702.00 396.00
C 707.34 403.65 714.21 411.31 714.00 421.00 Z"/>
</g>
<g fill="None" fill-opacity="0.0" stroke="#4B74B8" stroke-opacity="0.32" stroke-width="0.3"><path d="
M 715.00 417.00 
C 715.77 415.11 716.23 411.19 716.00 410.00
C 715.33 407.82 715.06 406.75 714.00 405.00
C 712.29 402.77 707.64 398.25 705.00 397.00
C 710.99 400.77 713.34 411.20 715.00 417.00 Z"/>
</g>
<g fill="None" fill-opacity="0.0" stroke="#6F9FD1" stroke-opacity="0.05" stroke-width="0.3"><path d="
M 715.00 417.00 
C 714.83 417.43 715.00 418.50 715.00 419.00
C 715.00 419.50 715.01 420.50 715.00 421.00
C 716.13 416.90 717.47 414.80 716.00 410.00
C 716.23 411.19 715.77 415.11 715.00 417.00 Z"/>
</g>
<g fill="None" fill-opacity="0.0" stroke="#2167BE" stroke-opacity="0.12" stroke-width="0.3"><path d="
M 413.00 432.00 
C 419.27 428.33 430.24 417.42 434.00 411.00
C 426.84 417.62 419.58 425.42 413.00 432.00 Z"/>
</g>
<g fill="None" fill-opacity="0.0" stroke="#4378BD" stroke-opacity="0.10" stroke-width="0.3"><path d="
M 714.00 421.00 
C 711.99 427.37 711.06 435.34 708.00 441.00
C 707.63 441.69 707.14 442.21 707.00 443.00
C 706.91 443.48 707.00 444.00 707.00 444.00
C 705.22 448.95 699.37 452.05 696.00 456.00
C 678.11 476.94 658.32 494.12 638.75 513.75 C 619.18 533.39 599.62 555.12 581.00 572.00
C 580.33 573.06 580.45 573.93 580.00 575.00
C 601.59 550.23 631.34 528.20 651.30 503.30 C 671.27 478.41 714.04 458.05 715.00 421.00
C 715.01 420.50 715.00 419.50 715.00 419.00
C 714.94 419.20 714.15 420.52 714.00 421.00 Z"/>
</g>
<g fill="None" fill-opacity="0.0" stroke="#1F54A6" stroke-opacity="0.64" stroke-width="0.3"><path d="
M 522.00 423.00 
C 507.88 441.47 488.38 456.38 472.25 473.25 C 456.11 490.12 439.03 508.05 421.75 523.75 C 404.47 539.45 389.99 560.68 371.00 574.00
C 370.76 574.16 371.00 575.00 371.00 575.00
C 371.25 575.25 372.00 575.00 372.00 575.00
C 372.50 575.00 373.00 575.00 373.00 575.00
C 374.30 570.96 380.17 567.27 383.00 564.00
C 386.36 560.11 389.98 556.13 394.00 553.00
C 394.20 552.68 394.68 552.20 395.00 552.00
C 400.62 544.78 408.14 537.92 415.00 532.00
C 417.16 529.82 419.93 527.40 422.00 525.00
C 426.23 520.10 430.93 514.95 436.00 511.00
C 436.20 510.68 436.68 510.20 437.00 510.00
C 440.12 506.00 444.05 502.08 448.00 499.00
C 448.20 498.68 448.68 498.20 449.00 498.00
C 458.71 485.54 472.59 471.67 485.00 462.00
C 485.20 461.68 485.68 461.20 486.00 461.00
C 494.07 450.63 505.12 440.53 515.00 432.00
C 518.69 428.28 522.23 424.39 524.00 421.00
C 523.24 421.71 522.69 422.09 522.00 423.00 Z"/>
</g>
<g fill="None" fill-opacity="0.0" stroke="#1950A4" stroke-opacity="0.87" stroke-width="0.3"><path d="
M 371.00 574.00 
C 389.99 560.68 404.47 539.45 421.75 523.75 C 439.03 508.05 456.11 490.12 472.25 473.25 C 488.38 456.38 507.88 441.47 522.00 423.00
C 472.02 473.41 421.24 523.75 371.00 574.00 Z"/>
</g>
<g fill="None" fill-opacity="0.0" stroke="#4273BD" stroke-opacity="0.35" stroke-width="0.3"><path d="
M 631.00 424.00 
C 628.72 428.65 622.94 431.80 620.00 436.00
C 621.76 434.24 624.15 432.58 626.00 431.00
C 628.49 428.88 630.67 426.33 633.00 424.00
C 633.60 424.00 630.81 422.95 631.00 423.00
C 631.00 423.00 631.20 423.60 631.00 424.00 Z"/>
</g>
<g fill="None" fill-opacity="0.0" stroke="#5C95CE" stroke-opacity="0.06" stroke-width="0.3"><path d="
M 544.00 507.00 
C 550.00 507.47 556.56 494.10 562.75 489.75 C 568.94 485.40 576.00 475.73 582.25 470.25 C 588.50 464.77 595.59 456.47 602.00 451.00
C 603.81 449.45 605.90 447.03 608.00 446.00
C 608.40 445.80 609.00 446.00 609.00 446.00
C 611.26 442.77 615.45 437.73 619.00 436.00
C 619.40 435.80 620.00 436.00 620.00 436.00
C 622.94 431.80 628.72 428.65 631.00 424.00
C 615.20 435.02 598.83 451.59 585.10 465.10 C 571.36 478.61 555.94 490.78 544.00 507.00 Z"/>
</g>
<g fill="None" fill-opacity="0.0" stroke="#2558A8" stroke-opacity="0.90" stroke-width="0.3"><path d="
M 620.00 436.00 
C 613.65 442.35 607.45 448.77 600.75 454.75 C 594.06 460.74 588.63 469.11 581.75 474.75 C 574.87 480.40 570.23 488.92 562.75 493.75 C 555.28 498.59 550.58 509.29 543.00 513.00
C 542.60 513.20 542.00 513.00 542.00 513.00
C 539.23 516.96 534.90 521.27 531.00 524.00
C 530.80 524.40 531.00 525.00 531.00 525.00
C 528.50 530.10 518.74 537.68 514.00 541.00
C 513.80 541.40 514.00 542.00 514.00 542.00
C 511.07 547.98 503.04 553.12 498.25 558.25 C 493.45 563.37 486.80 569.92 481.00 574.00
C 480.80 574.40 481.00 575.00 481.00 575.00
C 478.70 578.70 474.51 586.81 473.00 588.00
C 472.89 588.32 472.22 589.41 472.00 590.00
C 471.98 591.73 472.00 595.31 472.00 598.00
C 474.09 572.86 503.82 556.86 519.25 538.25 C 534.67 519.63 556.02 503.06 573.08 485.08 C 590.14 467.10 608.41 448.59 626.00 431.00
C 624.15 432.58 621.76 434.24 620.00 436.00 Z"/>
</g>
<g fill="None" fill-opacity="0.0" stroke="#2358A8" stroke-opacity="0.38" stroke-width="0.3"><path d="
M 486.00 461.00 
C 496.86 454.28 506.03 441.06 515.00 432.00
C 505.12 440.53 494.07 450.63 486.00 461.00 Z"/>
</g>
<g fill="None" fill-opacity="0.0" stroke="#4A79BB" stroke-opacity="0.45" stroke-width="0.3"><path d="
M 609.00 446.00 
C 612.60 444.23 616.78 439.18 619.00 436.00
C 615.45 437.73 611.26 442.77 609.00 446.00 Z"/>
</g>
<g fill="None" fill-opacity="0.0" stroke="#3B6BB4" stroke-opacity="0.75" stroke-width="0.3"><path d="
M 609.00 446.00 
C 609.00 446.00 608.40 445.80 608.00 446.00
C 590.20 471.47 560.78 487.57 543.00 513.00
C 550.58 509.29 555.28 498.59 562.75 493.75 C 570.23 488.92 574.87 480.40 581.75 474.75 C 588.63 469.11 594.06 460.74 600.75 454.75 C 607.45 448.77 613.65 442.35 620.00 436.00
C 620.00 436.00 619.40 435.80 619.00 436.00
C 616.78 439.18 612.60 444.23 609.00 446.00 Z"/>
</g>
<g fill="None" fill-opacity="0.0" stroke="#1E52A3" stroke-opacity="0.91" stroke-width="0.3"><path d="
M 525.00 624.00 
C 542.43 612.41 554.32 593.05 570.25 579.25 C 586.18 565.45 600.42 548.45 615.75 533.75 C 631.09 519.05 646.39 503.53 661.25 488.25 C 676.10 472.97 692.57 458.48 707.00 443.00
C 707.14 442.21 707.63 441.69 708.00 441.00
C 700.15 452.99 682.50 463.93 671.75 476.75 C 661.00 489.58 646.43 501.39 634.75 513.75 C 623.08 526.11 610.49 538.30 598.25 550.25 C 586.00 562.20 574.04 575.90 561.25 587.25 C 548.45 598.59 538.33 613.58 525.00 624.00 Z"/>
</g>
<g fill="None" fill-opacity="0.0" stroke="#2A5BA7" stroke-opacity="0.79" stroke-width="0.3"><path d="
M 525.00 624.00 
C 503.89 638.05 472.00 625.23 472.00 598.00
C 472.00 595.31 471.98 591.73 472.00 590.00
C 470.23 594.85 469.78 601.08 471.00 606.00
C 473.21 614.90 480.17 621.95 488.00 627.00
C 489.39 627.90 491.96 628.88 493.00 630.00
C 505.02 630.13 511.98 635.19 523.00 627.00
C 545.63 610.17 562.52 584.72 584.25 566.25 C 605.98 547.77 623.35 523.54 645.25 505.25 C 667.15 486.95 683.69 460.27 707.00 444.00
C 707.00 444.00 706.91 443.48 707.00 443.00
C 692.57 458.48 676.10 472.97 661.25 488.25 C 646.39 503.53 631.09 519.05 615.75 533.75 C 600.42 548.45 586.18 565.45 570.25 579.25 C 554.32 593.05 542.43 612.41 525.00 624.00 Z"/>
</g>
<g fill="None" fill-opacity="0.0" stroke="#2D5DA6" stroke-opacity="0.64" stroke-width="0.3"><path d="
M 523.00 627.00 
C 527.33 624.54 531.46 620.54 535.00 617.00
C 541.23 609.71 548.75 602.20 556.00 596.00
C 602.58 549.42 649.47 502.53 696.00 456.00
C 699.37 452.05 705.22 448.95 707.00 444.00
C 683.69 460.27 667.15 486.95 645.25 505.25 C 623.35 523.54 605.98 547.77 584.25 566.25 C 562.52 584.72 545.63 610.17 523.00 627.00 Z"/>
</g>
<g fill="None" fill-opacity="0.0" stroke="#4673B9" stroke-opacity="0.54" stroke-width="0.3"><path d="
M 602.00 451.00 
C 581.82 471.18 560.67 491.28 541.25 512.25 C 521.83 533.22 497.18 551.32 480.00 574.00
C 479.28 574.95 478.65 576.06 478.00 577.00
C 478.76 576.24 480.33 575.73 481.00 575.00
C 481.00 575.00 480.80 574.40 481.00 574.00
C 484.37 567.11 492.19 563.78 497.25 558.25 C 502.30 552.72 507.89 546.25 514.00 542.00
C 514.00 542.00 513.80 541.40 514.00 541.00
C 516.96 534.94 525.75 528.67 531.00 525.00
C 531.00 525.00 530.80 524.40 531.00 524.00
C 532.65 520.62 538.68 514.62 542.00 513.00
C 542.00 513.00 542.60 513.20 543.00 513.00
C 560.78 487.57 590.20 471.47 608.00 446.00
C 605.90 447.03 603.81 449.45 602.00 451.00 Z"/>
</g>
<g fill="None" fill-opacity="0.0" stroke="#4C78BB" stroke-opacity="0.29" stroke-width="0.3"><path d="
M 544.00 507.00 
C 543.80 507.27 543.13 507.65 543.00 508.00
C 538.13 521.60 519.28 529.74 510.75 541.75 C 502.23 553.77 486.63 562.92 478.00 575.00
C 478.46 574.50 479.57 574.41 480.00 574.00
C 497.18 551.32 521.83 533.22 541.25 512.25 C 560.67 491.28 581.82 471.18 602.00 451.00
C 595.59 456.47 588.50 464.77 582.25 470.25 C 576.00 475.73 568.94 485.40 562.75 489.75 C 556.56 494.10 550.00 507.47 544.00 507.00 Z"/>
</g>
<g fill="None" fill-opacity="0.0" stroke="#305FA7" stroke-opacity="0.41" stroke-width="0.3"><path d="
M 556.00 596.00 
C 564.71 588.55 572.56 579.65 581.00 572.00
C 599.62 555.12 619.18 533.39 638.75 513.75 C 658.32 494.12 678.11 476.94 696.00 456.00
C 649.47 502.53 602.58 549.42 556.00 596.00 Z"/>
</g>
<g fill="None" fill-opacity="0.0" stroke="#2358A7" stroke-opacity="0.38" stroke-width="0.3"><path d="
M 449.00 498.00 
C 455.72 493.84 461.60 485.90 467.25 480.25 C 472.89 474.59 480.81 468.78 485.00 462.00
C 472.59 471.67 458.71 485.54 449.00 498.00 Z"/>
</g>
<g fill="None" fill-opacity="0.0" stroke="#46A6DF" stroke-opacity="0.03" stroke-width="0.3"><path d="
M 343.00 501.00 
C 344.65 499.62 346.43 499.01 348.00 497.00
C 346.00 496.84 344.82 498.82 343.00 501.00 Z"/>
</g>
<g fill="None" fill-opacity="0.0" stroke="#3068B7" stroke-opacity="0.29" stroke-width="0.3"><path d="
M 348.00 497.00 
C 346.43 499.01 344.65 499.62 343.00 501.00
C 340.88 503.53 337.98 506.49 336.00 509.00
C 331.47 514.74 325.61 520.42 320.00 525.00
C 315.98 528.29 312.64 531.66 309.00 536.00
C 306.45 539.05 303.87 540.87 301.00 543.00
C 298.67 545.24 297.17 547.31 295.00 550.00
C 293.21 552.22 290.81 554.00 289.00 556.00
C 284.62 563.18 283.15 562.21 282.00 574.00 C 280.85 585.79 285.44 606.69 301.00 607.00
C 301.50 607.01 302.00 607.00 302.00 607.00
C 288.91 596.49 279.58 580.20 286.00 564.00
C 291.55 549.99 308.54 540.59 317.75 528.75 C 326.96 516.92 342.72 507.92 349.00 496.00
C 348.83 496.33 348.21 496.73 348.00 497.00 Z"/>
</g>
<g fill="None" fill-opacity="0.0" stroke="#2256A8" stroke-opacity="0.38" stroke-width="0.3"><path d="
M 437.00 510.00 
C 440.74 507.69 445.65 502.80 448.00 499.00
C 444.05 502.08 440.12 506.00 437.00 510.00 Z"/>
</g>
<g fill="None" fill-opacity="0.0" stroke="#6096CA" stroke-opacity="0.06" stroke-width="0.3"><path d="
M 468.00 592.00 
C 467.63 594.22 466.70 602.76 467.00 604.00
C 467.50 605.53 469.45 605.86 470.00 607.00
C 469.94 606.29 469.16 605.74 469.00 605.00
C 466.65 593.97 472.07 583.31 478.00 575.00
C 486.63 562.92 502.23 553.77 510.75 541.75 C 519.28 529.74 538.13 521.60 543.00 508.00
C 528.05 519.55 516.36 535.06 502.70 547.70 C 489.04 560.34 473.49 573.92 468.00 592.00 Z"/>
</g>
<g fill="None" fill-opacity="0.0" stroke="#2769BA" stroke-opacity="0.04" stroke-width="0.3"><path d="
M 320.00 525.00 
C 325.61 520.42 331.47 514.74 336.00 509.00
C 330.97 514.03 325.21 518.90 320.00 525.00 Z"/>
</g>
<g fill="None" fill-opacity="0.0" stroke="#2358A6" stroke-opacity="0.38" stroke-width="0.3"><path d="
M 422.00 525.00 
C 426.42 520.62 432.63 516.44 436.00 511.00
C 430.93 514.95 426.23 520.10 422.00 525.00 Z"/>
</g>
<g fill="None" fill-opacity="0.0" stroke="#4371BA" stroke-opacity="0.75" stroke-width="0.3"><path d="
M 531.00 524.00 
C 534.90 521.27 539.23 516.96 542.00 513.00
C 538.68 514.62 532.65 520.62 531.00 524.00 Z"/>
</g>
<g fill="None" fill-opacity="0.0" stroke="#3E6EB7" stroke-opacity="0.76" stroke-width="0.3"><path d="
M 514.00 541.00 
C 518.74 537.68 528.50 530.10 531.00 525.00
C 525.75 528.67 516.96 534.94 514.00 541.00 Z"/>
</g>
<g fill="None" fill-opacity="0.0" stroke="#2358A6" stroke-opacity="0.38" stroke-width="0.3"><path d="
M 395.00 552.00 
C 402.58 547.32 408.75 538.31 415.00 532.00
C 408.14 537.92 400.62 544.78 395.00 552.00 Z"/>
</g>
<g fill="None" fill-opacity="0.0" stroke="#2D75B6" stroke-opacity="0.04" stroke-width="0.3"><path d="
M 301.00 543.00 
C 303.87 540.87 306.45 539.05 309.00 536.00
C 306.58 538.28 303.56 540.54 301.00 543.00 Z"/>
</g>
<g fill="None" fill-opacity="0.0" stroke="#3B6BB4" stroke-opacity="0.75" stroke-width="0.3"><path d="
M 481.00 574.00 
C 486.80 569.92 493.45 563.37 498.25 558.25 C 503.04 553.12 511.07 547.98 514.00 542.00
C 507.89 546.25 502.30 552.72 497.25 558.25 C 492.19 563.78 484.37 567.11 481.00 574.00 Z"/>
</g>
<g fill="None" fill-opacity="0.0" stroke="#4B9BD1" stroke-opacity="0.04" stroke-width="0.3"><path d="
M 289.00 556.00 
C 290.81 554.00 293.21 552.22 295.00 550.00
C 292.55 552.14 290.95 552.80 289.00 556.00 Z"/>
</g>
<g fill="None" fill-opacity="0.0" stroke="#2457A7" stroke-opacity="0.38" stroke-width="0.3"><path d="
M 383.00 564.00 
C 386.51 560.53 391.31 557.35 394.00 553.00
C 389.98 556.13 386.36 560.11 383.00 564.00 Z"/>
</g>
<g fill="None" fill-opacity="0.0" stroke="#4479BA" stroke-opacity="0.18" stroke-width="0.3"><path d="
M 556.00 596.00 
C 548.75 602.20 541.23 609.71 535.00 617.00
C 531.12 621.54 526.84 625.40 523.00 627.00
C 511.98 635.19 505.02 630.13 493.00 630.00
C 492.84 630.00 492.35 630.91 492.00 631.00
C 492.03 632.44 495.21 633.64 496.00 634.00
C 498.03 634.59 499.99 635.66 502.00 636.00
C 504.20 636.16 510.53 634.23 512.00 634.00
C 528.79 631.34 538.71 616.86 550.00 605.00
C 551.38 602.87 555.16 599.34 557.00 598.00
C 564.20 590.51 572.88 583.17 580.00 575.00
C 580.45 573.93 580.33 573.06 581.00 572.00
C 572.56 579.65 564.71 588.55 556.00 596.00 Z"/>
</g>
<g fill="None" fill-opacity="0.0" stroke="#1772FE" stroke-opacity="1.00" stroke-width="0.3"><path d="
M 306.00 608.00 
C 318.30 625.57 337.46 638.09 351.75 654.25 C 366.04 670.40 383.17 685.18 398.25 700.75 C 413.32 716.33 428.60 731.66 444.25 746.75 C 459.89 761.84 475.71 786.11 499.00 783.00
C 509.48 781.60 522.83 776.70 526.00 765.00
C 528.82 754.57 527.90 745.44 527.00 736.00
C 524.87 730.33 519.91 726.06 514.25 720.75 C 508.59 715.44 503.74 710.09 498.25 704.75 C 492.75 699.41 487.68 694.12 482.25 688.75 C 476.81 683.38 471.14 677.62 465.75 672.25 C 460.37 666.88 455.05 661.59 449.75 656.25 C 444.45 650.91 438.95 645.57 433.75 640.25 C 428.56 634.93 422.21 628.98 417.25 623.75 C 412.29 618.53 405.64 612.74 401.25 607.75 C 396.86 602.77 388.43 596.26 385.25 591.75 C 382.06 587.24 368.60 579.05 371.00 575.00
C 371.00 575.00 370.76 574.16 371.00 574.00
C 362.56 582.44 353.20 591.20 344.75 599.75 C 336.30 608.31 317.21 615.06 306.00 608.00 Z"/>
</g>
<g fill="None" fill-opacity="0.0" stroke="#4571B6" stroke-opacity="0.40" stroke-width="0.3"><path d="
M 478.00 575.00 
C 472.07 583.31 466.65 593.97 469.00 605.00
C 469.22 605.48 470.79 605.67 471.00 606.00
C 469.78 601.08 470.23 594.85 472.00 590.00
C 472.22 589.41 472.89 588.32 473.00 588.00
C 474.44 583.78 475.35 580.82 478.00 577.00
C 478.65 576.06 479.28 574.95 480.00 574.00
C 479.57 574.41 478.46 574.50 478.00 575.00 Z"/>
</g>
<g fill="None" fill-opacity="0.0" stroke="#549DFC" stroke-opacity="0.36" stroke-width="0.3"><path d="
M 527.00 736.00 
C 531.02 746.71 532.46 755.38 526.00 765.00
C 522.83 776.70 509.48 781.60 499.00 783.00
C 497.83 783.41 493.37 786.87 490.98 785.02 C 488.59 783.17 482.65 782.30 482.00 783.00
C 482.21 783.11 482.00 784.00 482.00 784.00
C 482.12 784.83 493.72 791.14 497.90 787.90 C 502.09 784.66 506.43 788.50 512.92 782.92 C 519.40 777.34 527.44 770.09 530.00 764.00
C 532.89 753.30 531.68 744.38 528.00 735.00
C 525.46 724.03 514.21 716.10 506.10 707.90 C 497.99 699.70 490.62 692.13 482.23 683.77 C 473.84 675.41 466.37 666.39 457.00 661.00
C 450.08 650.13 442.11 643.57 432.75 634.25 C 423.39 624.93 415.20 616.63 406.25 607.75 C 397.29 598.88 388.74 588.87 380.00 583.00
C 377.00 580.98 374.03 577.90 372.00 575.00
C 372.00 575.00 371.25 575.25 371.00 575.00
C 368.60 579.05 382.06 587.24 385.25 591.75 C 388.43 596.26 396.86 602.77 401.25 607.75 C 405.64 612.74 412.29 618.53 417.25 623.75 C 422.21 628.98 428.56 634.93 433.75 640.25 C 438.95 645.57 444.45 650.91 449.75 656.25 C 455.05 661.59 460.37 666.88 465.75 672.25 C 471.14 677.62 476.81 683.38 482.25 688.75 C 487.68 694.12 492.75 699.41 498.25 704.75 C 503.74 710.09 508.59 715.44 514.25 720.75 C 519.91 726.06 524.87 730.33 527.00 736.00 Z"/>
</g>
<g fill="None" fill-opacity="0.0" stroke="#59B0FF" stroke-opacity="0.04" stroke-width="0.3"><path d="
M 380.00 583.00 
C 378.37 581.43 375.56 577.23 374.00 575.00
C 374.00 575.00 373.50 575.00 373.00 575.00
C 373.00 575.00 372.50 575.00 372.00 575.00
C 374.03 577.90 377.00 580.98 380.00 583.00 Z"/>
</g>
<g fill="None" fill-opacity="0.0" stroke="#3765AC" stroke-opacity="0.69" stroke-width="0.3"><path d="
M 478.00 577.00 
C 475.35 580.82 474.44 583.78 473.00 588.00
C 474.51 586.81 478.70 578.70 481.00 575.00
C 480.33 575.73 478.76 576.24 478.00 577.00 Z"/>
</g>
<g fill="None" fill-opacity="0.0" stroke="#F3FFFF" stroke-opacity="0.00" stroke-width="0.3"><path d="
M 467.00 604.00 
C 466.70 602.76 467.63 594.22 468.00 592.00
C 467.17 594.74 465.87 600.58 467.00 604.00 Z"/>
</g>
<g fill="None" fill-opacity="0.0" stroke="#3593C5" stroke-opacity="0.04" stroke-width="0.3"><path d="
M 550.00 605.00 
C 552.38 602.50 554.72 600.38 557.00 598.00
C 555.16 599.34 551.38 602.87 550.00 605.00 Z"/>
</g>
<g fill="None" fill-opacity="0.0" stroke="#4276B8" stroke-opacity="0.21" stroke-width="0.3"><path d="
M 470.00 607.00 
C 470.73 616.24 478.12 624.54 486.00 630.00
C 486.00 630.00 486.89 628.90 487.00 629.00
C 486.90 628.91 488.08 627.33 488.00 627.00
C 480.17 621.95 473.21 614.90 471.00 606.00
C 470.79 605.67 469.22 605.48 469.00 605.00
C 469.16 605.74 469.94 606.29 470.00 607.00 Z"/>
</g>
<g fill="None" fill-opacity="0.0" stroke="#67AEFB" stroke-opacity="0.05" stroke-width="0.3"><path d="
M 423.00 729.00 
C 418.52 719.13 405.89 713.50 399.25 704.75 C 392.61 696.01 382.10 688.67 374.75 680.25 C 367.40 671.83 358.35 664.55 350.75 656.25 C 343.15 647.95 333.76 640.44 326.25 631.75 C 318.74 623.07 308.51 616.33 302.00 607.00
C 302.00 607.00 301.50 607.01 301.00 607.00
C 304.08 616.86 318.36 623.31 324.90 632.10 C 331.44 640.89 341.76 647.97 349.25 656.75 C 356.74 665.53 366.08 672.57 374.08 680.92 C 382.08 689.26 390.42 697.40 398.25 705.75 C 406.07 714.10 415.27 721.04 423.00 729.00 Z"/>
</g>
<g fill="None" fill-opacity="0.0" stroke="#478BF2" stroke-opacity="0.32" stroke-width="0.3"><path d="
M 423.00 729.00 
C 423.49 730.08 423.29 730.14 424.00 731.00
C 432.87 736.06 441.44 748.09 450.25 755.75 C 459.06 763.42 467.99 776.02 477.00 780.00
C 468.18 772.89 458.41 764.27 450.75 755.25 C 443.09 746.22 431.18 739.01 425.00 729.00
C 424.80 728.68 424.32 728.20 424.00 728.00
C 409.91 719.29 397.50 702.00 385.75 690.25 C 374.00 678.50 356.67 666.03 348.00 652.00
C 347.80 651.68 347.32 651.20 347.00 651.00
C 343.20 648.65 338.31 643.74 336.00 640.00
C 335.80 639.68 335.32 639.20 335.00 639.00
C 328.86 635.21 323.97 628.25 318.75 623.25 C 313.53 618.24 307.09 612.86 303.00 607.00
C 303.00 607.00 302.30 607.24 302.00 607.00
C 308.51 616.33 318.74 623.07 326.25 631.75 C 333.76 640.44 343.15 647.95 350.75 656.25 C 358.35 664.55 367.40 671.83 374.75 680.25 C 382.10 688.67 392.61 696.01 399.25 704.75 C 405.89 713.50 418.52 719.13 423.00 729.00 Z"/>
</g>
<g fill="None" fill-opacity="0.0" stroke="#3A84F3" stroke-opacity="0.64" stroke-width="0.3"><path d="
M 335.00 639.00 
C 326.55 628.16 314.99 617.32 305.00 608.00
C 304.16 607.85 303.80 607.14 303.00 607.00
C 307.09 612.86 313.53 618.24 318.75 623.25 C 323.97 628.25 328.86 635.21 335.00 639.00 Z"/>
</g>
<g fill="None" fill-opacity="0.0" stroke="#2C7EF9" stroke-opacity="0.85" stroke-width="0.3"><path d="
M 335.00 639.00 
C 335.32 639.20 335.80 639.68 336.00 640.00
C 340.01 643.12 343.92 647.05 347.00 651.00
C 347.32 651.20 347.80 651.68 348.00 652.00
C 361.83 662.77 373.82 677.33 386.25 689.75 C 398.68 702.17 413.27 714.23 424.00 728.00
C 424.32 728.20 424.80 728.68 425.00 729.00
C 443.98 743.78 458.24 765.48 477.00 780.00
C 478.61 781.25 480.24 782.06 482.00 783.00
C 482.65 782.30 488.59 783.17 490.98 785.02 C 493.37 786.87 497.83 783.41 499.00 783.00
C 475.71 786.11 459.89 761.84 444.25 746.75 C 428.60 731.66 413.32 716.33 398.25 700.75 C 383.17 685.18 366.04 670.40 351.75 654.25 C 337.46 638.09 318.30 625.57 306.00 608.00
C 306.00 608.00 305.48 608.09 305.00 608.00
C 314.99 617.32 326.55 628.16 335.00 639.00 Z"/>
</g>
<g fill="None" fill-opacity="0.0" stroke="#3463A9" stroke-opacity="0.42" stroke-width="0.3"><path d="
M 523.00 627.00 
C 526.84 625.40 531.12 621.54 535.00 617.00
C 531.46 620.54 527.33 624.54 523.00 627.00 Z"/>
</g>
<g fill="None" fill-opacity="0.0" stroke="#4975B8" stroke-opacity="0.41" stroke-width="0.3"><path d="
M 487.00 629.00 
C 488.78 629.96 489.09 631.72 492.00 631.00
C 492.35 630.91 492.84 630.00 493.00 630.00
C 491.96 628.88 489.39 627.90 488.00 627.00
C 488.08 627.33 486.90 628.91 487.00 629.00 Z"/>
</g>
<g fill="None" fill-opacity="0.0" stroke="#6EA2C0" stroke-opacity="0.04" stroke-width="0.3"><path d="
M 486.00 630.00 
C 489.26 632.26 491.98 632.83 496.00 634.00
C 495.21 633.64 492.03 632.44 492.00 631.00
C 489.09 631.72 488.78 629.96 487.00 629.00
C 486.89 628.90 486.00 630.00 486.00 630.00 Z"/>
</g>
<g fill="None" fill-opacity="0.0" stroke="#6EABE5" stroke-opacity="0.04" stroke-width="0.3"><path d="
M 502.00 636.00 
C 506.36 636.74 508.93 634.89 512.00 634.00
C 510.53 634.23 504.20 636.16 502.00 636.00 Z"/>
</g>
<g fill="None" fill-opacity="0.0" stroke="#3B85F4" stroke-opacity="0.64" stroke-width="0.3"><path d="
M 347.00 651.00 
C 343.92 647.05 340.01 643.12 336.00 640.00
C 338.31 643.74 343.20 648.65 347.00 651.00 Z"/>
</g>
<g fill="None" fill-opacity="0.0" stroke="#3B85F4" stroke-opacity="0.64" stroke-width="0.3"><path d="
M 424.00 728.00 
C 413.27 714.23 398.68 702.17 386.25 689.75 C 373.82 677.33 361.83 662.77 348.00 652.00
C 356.67 666.03 374.00 678.50 385.75 690.25 C 397.50 702.00 409.91 719.29 424.00 728.00 Z"/>
</g>
<g fill="None" fill-opacity="0.0" stroke="#3B85F5" stroke-opacity="0.63" stroke-width="0.3"><path d="
M 477.00 780.00 
C 458.24 765.48 443.98 743.78 425.00 729.00
C 431.18 739.01 443.09 746.22 450.75 755.25 C 458.41 764.27 468.18 772.89 477.00 780.00 Z"/>
</g>
<g fill="None" fill-opacity="0.0" stroke="#6CAFFC" stroke-opacity="0.06" stroke-width="0.3"><path d="
M 424.00 731.00 
C 429.17 737.24 436.43 744.04 442.25 749.75 C 448.07 755.47 454.68 763.14 460.77 768.23 C 466.86 773.32 472.97 784.63 482.00 784.00
C 482.00 784.00 482.21 783.11 482.00 783.00
C 480.24 782.06 478.61 781.25 477.00 780.00
C 467.99 776.02 459.06 763.42 450.25 755.75 C 441.44 748.09 432.87 736.06 424.00 731.00 Z"/>
</g>
<g fill="None" fill-opacity="0.0" stroke="#BFD3FF" stroke-opacity="0.02" stroke-width="0.3"><path d="
M 530.00 764.00 
C 534.52 753.25 533.03 743.83 528.00 735.00
C 531.68 744.38 532.89 753.30 530.00 764.00 Z"/>
</g>
<g fill="None" fill-opacity="0.0" stroke="#3987FB" stroke-opacity="0.74" stroke-width="0.3"><path d="
M 526.00 765.00 
C 532.46 755.38 531.02 746.71 527.00 736.00
C 527.90 745.44 528.82 754.57 526.00 765.00 Z"/>
</g>
<g fill="#000000" fill-opacity="0.00" stroke="None">
<path d="
M 0.00 1000.00 
L 1000.00 1000.00
L 1000.00 0.00
L 0.00 0.00
L 0.00 1000.00
M 537.00 229.00 
C 542.20 233.85 548.45 238.57 553.00 244.00
C 553.23 244.28 553.68 244.81 554.00 245.00
C 558.42 247.64 561.99 252.73 565.00 257.00
C 565.21 257.30 565.79 257.73 566.00 258.00
C 570.81 258.01 580.30 272.08 584.00 276.00
C 585.40 277.17 586.58 278.23 588.00 280.00
C 597.36 288.65 607.07 297.39 616.00 307.00
C 617.32 308.42 617.98 309.72 619.00 311.00
C 622.20 314.00 628.44 317.56 630.00 322.00
C 630.40 322.20 631.00 322.00 631.00 322.00
C 642.93 331.09 653.72 345.52 664.00 356.00
C 668.08 359.10 670.90 362.26 674.00 366.00
C 680.64 371.82 689.64 381.06 697.00 388.00
C 702.72 393.39 709.83 398.11 714.00 405.00
C 715.06 406.75 715.33 407.82 716.00 410.00
C 717.47 414.80 716.13 416.90 715.00 421.00
C 714.04 458.05 671.27 478.41 651.30 503.30 C 631.34 528.20 601.59 550.23 580.00 575.00
C 572.88 583.17 564.20 590.51 557.00 598.00
C 554.72 600.38 552.38 602.50 550.00 605.00
C 538.71 616.86 528.79 631.34 512.00 634.00
C 508.93 634.89 506.36 636.74 502.00 636.00
C 499.99 635.66 498.03 634.59 496.00 634.00
C 491.98 632.83 489.26 632.26 486.00 630.00
C 478.12 624.54 470.73 616.24 470.00 607.00
C 469.45 605.86 467.50 605.53 467.00 604.00
C 465.87 600.58 467.17 594.74 468.00 592.00
C 473.49 573.92 489.04 560.34 502.70 547.70 C 516.36 535.06 528.05 519.55 543.00 508.00
C 543.13 507.65 543.80 507.27 544.00 507.00
C 555.94 490.78 571.36 478.61 585.10 465.10 C 598.83 451.59 615.20 435.02 631.00 424.00
C 631.20 423.60 631.00 423.00 631.00 423.00
C 629.82 422.68 629.86 422.41 629.00 422.00
C 620.70 418.06 615.27 412.52 609.25 405.75 C 603.23 398.98 596.67 393.76 591.70 388.29 C 586.73 382.82 578.97 376.32 573.75 370.25 C 568.54 364.18 560.72 358.59 555.25 351.75 C 549.77 344.92 542.37 341.72 538.10 334.90 C 533.83 328.08 522.15 324.07 520.00 316.00
C 513.04 310.98 508.45 303.67 500.75 297.25 C 493.06 290.82 489.25 284.03 482.08 277.92 C 474.90 271.82 468.24 261.90 466.00 253.00
C 465.19 249.79 466.20 245.51 467.00 243.00
C 471.41 229.23 478.71 215.91 495.01 212.01 C 511.31 208.11 527.53 217.58 537.00 229.00
M 496.00 367.00 
C 509.74 368.66 516.21 369.09 524.00 380.00
C 531.32 390.25 535.78 402.67 531.00 416.00
C 526.22 419.82 522.72 428.14 516.70 432.70 C 510.69 437.26 505.97 444.16 500.75 448.75 C 495.53 453.35 491.52 458.26 485.75 463.75 C 479.98 469.24 475.28 474.18 469.75 479.75 C 464.22 485.33 459.48 490.59 453.75 495.75 C 448.02 500.92 443.57 506.22 438.68 511.68 C 433.79 517.14 427.20 521.32 422.25 527.25 C 417.29 533.18 411.38 537.35 406.25 543.25 C 401.11 549.15 395.34 553.47 389.90 558.90 C 384.46 564.33 380.24 570.20 374.00 575.00
C 375.56 577.23 378.37 581.43 380.00 583.00
C 388.74 588.87 397.29 598.88 406.25 607.75 C 415.20 616.63 423.39 624.93 432.75 634.25 C 442.11 643.57 450.08 650.13 457.00 661.00
C 466.37 666.39 473.84 675.41 482.23 683.77 C 490.62 692.13 497.99 699.70 506.10 707.90 C 514.21 716.10 525.46 724.03 528.00 735.00
C 533.03 743.83 534.52 753.25 530.00 764.00
C 527.44 770.09 519.40 777.34 512.92 782.92 C 506.43 788.50 502.09 784.66 497.90 787.90 C 493.72 791.14 482.12 784.83 482.00 784.00
C 472.97 784.63 466.86 773.32 460.77 768.23 C 454.68 763.14 448.07 755.47 442.25 749.75 C 436.43 744.04 429.17 737.24 424.00 731.00
C 423.29 730.14 423.49 730.08 423.00 729.00
C 415.27 721.04 406.07 714.10 398.25 705.75 C 390.42 697.40 382.08 689.26 374.08 680.92 C 366.08 672.57 356.74 665.53 349.25 656.75 C 341.76 647.97 331.44 640.89 324.90 632.10 C 318.36 623.31 304.08 616.86 301.00 607.00
C 285.44 606.69 280.85 585.79 282.00 574.00 C 283.15 562.21 284.62 563.18 289.00 556.00
C 290.95 552.80 292.55 552.14 295.00 550.00
C 297.17 547.31 298.67 545.24 301.00 543.00
C 303.56 540.54 306.58 538.28 309.00 536.00
C 312.64 531.66 315.98 528.29 320.00 525.00
C 325.21 518.90 330.97 514.03 336.00 509.00
C 337.98 506.49 340.88 503.53 343.00 501.00
C 344.82 498.82 346.00 496.84 348.00 497.00
C 348.21 496.73 348.83 496.33 349.00 496.00
C 355.41 483.80 371.21 473.24 381.10 463.10 C 390.99 452.96 401.13 438.94 413.00 432.00
C 419.58 425.42 426.84 417.62 434.00 411.00
C 435.97 407.62 438.68 405.14 442.00 403.00
C 454.32 390.68 469.06 364.41 491.00 366.00
C 492.90 366.14 494.15 366.78 496.00 367.00 Z"/>
</g>
<g fill="#5A9FF7" fill-opacity="0.18" stroke="None">
<path d="
M 467.00 243.00 
C 466.65 244.93 465.83 251.92 466.00 253.00
C 468.24 261.90 474.90 271.82 482.08 277.92 C 489.25 284.03 493.06 290.82 500.75 297.25 C 508.45 303.67 513.04 310.98 520.00 316.00
C 519.88 315.53 520.00 315.00 520.00 315.00
C 515.26 305.31 502.99 300.13 496.75 291.25 C 490.52 282.37 477.64 276.12 474.00 266.00
C 475.26 266.56 475.25 268.85 477.00 269.00
C 476.91 268.48 476.24 267.46 476.00 267.00
C 471.18 257.62 465.77 245.22 471.75 235.75 C 477.74 226.29 483.29 217.46 494.00 216.00
C 504.47 211.49 513.29 213.11 523.00 219.00
C 533.10 224.05 540.58 234.69 549.25 242.75 C 557.91 250.81 566.23 259.92 574.75 268.25 C 583.27 276.57 591.86 285.28 600.25 293.75 C 608.63 302.23 617.58 310.64 625.75 319.25 C 633.93 327.86 643.50 335.94 651.25 344.75 C 659.00 353.56 669.93 361.03 676.75 370.25 C 683.57 379.47 697.67 385.63 702.00 396.00
C 703.03 396.74 703.98 396.51 705.00 397.00
C 707.64 398.25 712.29 402.77 714.00 405.00
C 709.83 398.11 702.72 393.39 697.00 388.00
C 689.87 383.39 680.36 373.67 674.00 366.00
C 670.90 362.26 668.08 359.10 664.00 356.00
C 658.16 351.57 652.07 345.28 647.25 339.75 C 642.43 334.22 633.22 328.81 631.00 322.00
C 631.00 322.00 630.40 322.20 630.00 322.00
C 625.91 320.00 621.74 314.43 619.00 311.00
C 617.98 309.72 617.32 308.42 616.00 307.00
C 606.34 299.10 595.96 289.88 588.00 280.00
C 586.58 278.23 585.40 277.17 584.00 276.00
C 577.71 270.73 571.01 264.43 566.00 258.00
C 565.79 257.73 565.21 257.30 565.00 257.00
C 560.45 253.46 557.61 249.08 554.00 245.00
C 553.68 244.81 553.23 244.28 553.00 244.00
C 547.04 241.20 541.28 234.16 537.00 229.00
C 527.53 217.58 511.31 208.11 495.01 212.01 C 478.71 215.91 471.41 229.23 467.00 243.00 Z"/>
</g>
<g fill="#3684F9" fill-opacity="0.78" stroke="None">
<path d="
M 494.00 216.00 
C 527.96 211.37 547.51 244.69 570.25 265.75 C 592.99 286.81 612.33 309.29 634.75 330.25 C 657.17 351.21 676.74 374.24 699.00 395.00
C 699.45 395.42 700.40 395.89 701.00 396.00
C 689.29 379.23 670.98 367.06 657.25 351.75 C 643.52 336.44 627.37 321.81 612.75 307.25 C 598.13 292.69 583.62 276.39 568.25 262.75 C 552.88 249.11 540.05 229.34 523.00 219.00
C 513.29 213.11 504.47 211.49 494.00 216.00 Z"/>
</g>
<g fill="#1772FE" fill-opacity="1.00" stroke="None">
<path d="
M 476.00 267.00 
C 490.08 285.93 511.84 300.56 527.25 318.75 C 542.65 336.95 563.78 351.97 578.75 370.25 C 593.73 388.53 618.19 403.05 629.00 422.00
C 629.86 422.41 629.82 422.68 631.00 423.00
C 630.81 422.95 633.60 424.00 633.00 424.00
C 643.08 413.92 647.90 407.20 659.25 398.25 C 670.59 389.29 685.50 390.44 699.00 395.00
C 676.74 374.24 657.17 351.21 634.75 330.25 C 612.33 309.29 592.99 286.81 570.25 265.75 C 547.51 244.69 527.96 211.37 494.00 216.00
C 483.29 217.46 477.74 226.29 471.75 235.75 C 465.77 245.22 471.18 257.62 476.00 267.00 Z"/>
</g>
<g fill="#448DF7" fill-opacity="0.54" stroke="None">
<path d="
M 701.00 396.00 
C 701.48 396.09 702.00 396.00 702.00 396.00
C 697.67 385.63 683.57 379.47 676.75 370.25 C 669.93 361.03 659.00 353.56 651.25 344.75 C 643.50 335.94 633.93 327.86 625.75 319.25 C 617.58 310.64 608.63 302.23 600.25 293.75 C 591.86 285.28 583.27 276.57 574.75 268.25 C 566.23 259.92 557.91 250.81 549.25 242.75 C 540.58 234.69 533.10 224.05 523.00 219.00
C 540.05 229.34 552.88 249.11 568.25 262.75 C 583.62 276.39 598.13 292.69 612.75 307.25 C 627.37 321.81 643.52 336.44 657.25 351.75 C 670.98 367.06 689.29 379.23 701.00 396.00 Z"/>
</g>
<g fill="#85BAFC" fill-opacity="0.04" stroke="None">
<path d="
M 553.00 244.00 
C 548.45 238.57 542.20 233.85 537.00 229.00
C 541.28 234.16 547.04 241.20 553.00 244.00 Z"/>
</g>
<g fill="#F0FFFF" fill-opacity="0.01" stroke="None">
<path d="
M 466.00 253.00 
C 465.83 251.92 466.65 244.93 467.00 243.00
C 466.20 245.51 465.19 249.79 466.00 253.00 Z"/>
</g>
<g fill="#82C6FF" fill-opacity="0.03" stroke="None">
<path d="
M 565.00 257.00 
C 561.99 252.73 558.42 247.64 554.00 245.00
C 557.61 249.08 560.45 253.46 565.00 257.00 Z"/>
</g>
<g fill="#6DB5FD" fill-opacity="0.04" stroke="None">
<path d="
M 566.00 258.00 
C 571.01 264.43 577.71 270.73 584.00 276.00
C 580.30 272.08 570.81 258.01 566.00 258.00 Z"/>
</g>
<g fill="#468DF4" fill-opacity="0.40" stroke="None">
<path d="
M 520.00 315.00 
C 528.39 323.39 537.98 335.81 548.00 342.00
C 541.25 333.32 531.89 326.62 524.75 318.25 C 517.61 309.88 507.37 302.92 500.75 294.25 C 494.13 285.58 481.72 279.67 477.00 270.00
C 476.80 269.60 477.00 269.00 477.00 269.00
C 475.25 268.85 475.26 266.56 474.00 266.00
C 477.64 276.12 490.52 282.37 496.75 291.25 C 502.99 300.13 515.26 305.31 520.00 315.00 Z"/>
</g>
<g fill="#267BFB" fill-opacity="0.90" stroke="None">
<path d="
M 477.00 269.00 
C 477.00 269.00 476.80 269.60 477.00 270.00
C 496.01 283.28 509.98 304.08 527.25 319.75 C 544.52 335.42 561.53 353.37 577.75 370.25 C 593.97 387.13 613.68 402.62 628.00 421.00
C 628.30 420.95 628.93 422.02 629.00 422.00
C 618.19 403.05 593.73 388.53 578.75 370.25 C 563.78 351.97 542.65 336.95 527.25 318.75 C 511.84 300.56 490.08 285.93 476.00 267.00
C 476.24 267.46 476.91 268.48 477.00 269.00 Z"/>
</g>
<g fill="#3A86F6" fill-opacity="0.69" stroke="None">
<path d="
M 548.00 342.00 
C 548.32 342.20 548.80 342.68 549.00 343.00
C 577.26 365.01 599.89 395.66 626.00 420.00
C 626.45 420.28 627.43 421.10 628.00 421.00
C 613.68 402.62 593.97 387.13 577.75 370.25 C 561.53 353.37 544.52 335.42 527.25 319.75 C 509.98 304.08 496.01 283.28 477.00 270.00
C 481.72 279.67 494.13 285.58 500.75 294.25 C 507.37 302.92 517.61 309.88 524.75 318.25 C 531.89 326.62 541.25 333.32 548.00 342.00 Z"/>
</g>
<g fill="#70B8FF" fill-opacity="0.04" stroke="None">
<path d="
M 616.00 307.00 
C 607.07 297.39 597.36 288.65 588.00 280.00
C 595.96 289.88 606.34 299.10 616.00 307.00 Z"/>
</g>
<g fill="#7EB7FF" fill-opacity="0.04" stroke="None">
<path d="
M 630.00 322.00 
C 628.44 317.56 622.20 314.00 619.00 311.00
C 621.74 314.43 625.91 320.00 630.00 322.00 Z"/>
</g>
<g fill="#6BAAFB" fill-opacity="0.07" stroke="None">
<path d="
M 520.00 316.00 
C 522.15 324.07 533.83 328.08 538.10 334.90 C 542.37 341.72 549.77 344.92 555.25 351.75 C 560.72 358.59 568.54 364.18 573.75 370.25 C 578.97 376.32 586.73 382.82 591.70 388.29 C 596.67 393.76 603.23 398.98 609.25 405.75 C 615.27 412.52 620.70 418.06 629.00 422.00
C 628.93 422.02 628.30 420.95 628.00 421.00
C 627.43 421.10 626.45 420.28 626.00 420.00
C 616.10 413.98 608.91 402.55 600.25 394.75 C 591.59 386.95 582.59 377.94 574.75 369.25 C 566.92 360.55 555.12 352.89 549.00 343.00
C 548.80 342.68 548.32 342.20 548.00 342.00
C 537.98 335.81 528.39 323.39 520.00 315.00
C 520.00 315.00 519.88 315.53 520.00 316.00 Z"/>
</g>
<g fill="#65B6FE" fill-opacity="0.04" stroke="None">
<path d="
M 664.00 356.00 
C 653.72 345.52 642.93 331.09 631.00 322.00
C 633.22 328.81 642.43 334.22 647.25 339.75 C 652.07 345.28 658.16 351.57 664.00 356.00 Z"/>
</g>
<g fill="#478DF4" fill-opacity="0.40" stroke="None">
<path d="
M 626.00 420.00 
C 599.89 395.66 577.26 365.01 549.00 343.00
C 555.12 352.89 566.92 360.55 574.75 369.25 C 582.59 377.94 591.59 386.95 600.25 394.75 C 608.91 402.55 616.10 413.98 626.00 420.00 Z"/>
</g>
<g fill="#89C1FC" fill-opacity="0.04" stroke="None">
<path d="
M 674.00 366.00 
C 680.36 373.67 689.87 383.39 697.00 388.00
C 689.64 381.06 680.64 371.82 674.00 366.00 Z"/>
</g>
<g fill="#3073BE" fill-opacity="0.11" stroke="None">
<path d="
M 442.00 403.00 
C 457.93 392.72 470.71 366.25 491.00 366.00
C 469.06 364.41 454.32 390.68 442.00 403.00 Z"/>
</g>
<g fill="#215AAC" fill-opacity="0.51" stroke="None">
<path d="
M 442.00 403.00 
C 438.68 405.14 435.97 407.62 434.00 411.00
C 430.24 417.42 419.27 428.33 413.00 432.00
C 401.13 438.94 390.99 452.96 381.10 463.10 C 371.21 473.24 355.41 483.80 349.00 496.00
C 342.72 507.92 326.96 516.92 317.75 528.75 C 308.54 540.59 291.55 549.99 286.00 564.00
C 298.02 544.33 320.22 530.53 335.75 512.75 C 351.28 494.97 370.13 478.88 386.75 461.75 C 403.37 444.62 419.71 427.86 437.25 411.25 C 454.79 394.63 471.09 368.01 497.00 369.00
C 496.51 368.80 496.32 367.26 496.00 367.00
C 494.15 366.78 492.90 366.14 491.00 366.00
C 470.71 366.25 457.93 392.72 442.00 403.00 Z"/>
</g>
<g fill="#2360B3" fill-opacity="0.32" stroke="None">
<path d="
M 497.00 369.00 
C 508.54 369.44 515.98 373.98 524.00 383.00
C 523.92 382.65 524.53 381.32 524.00 380.00
C 516.21 369.09 509.74 368.66 496.00 367.00
C 496.32 367.26 496.51 368.80 497.00 369.00 Z"/>
</g>
<g fill="#0D47A1" fill-opacity="1.00" stroke="None">
<path d="
M 286.00 564.00 
C 279.58 580.20 288.91 596.49 302.00 607.00
C 302.30 607.24 303.00 607.00 303.00 607.00
C 303.80 607.14 304.16 607.85 305.00 608.00
C 305.48 608.09 306.00 608.00 306.00 608.00
C 317.21 615.06 336.30 608.31 344.75 599.75 C 353.20 591.20 362.56 582.44 371.00 574.00
C 421.24 523.75 472.02 473.41 522.00 423.00
C 522.69 422.09 523.24 421.71 524.00 421.00
C 525.56 419.55 526.12 417.85 527.00 416.00
C 527.46 413.94 528.06 410.03 529.00 407.00
C 529.54 403.95 527.36 396.55 529.00 395.00
C 529.65 390.65 526.75 386.09 524.00 383.00
C 515.98 373.98 508.54 369.44 497.00 369.00
C 471.09 368.01 454.79 394.63 437.25 411.25 C 419.71 427.86 403.37 444.62 386.75 461.75 C 370.13 478.88 351.28 494.97 335.75 512.75 C 320.22 530.53 298.02 544.33 286.00 564.00 Z"/>
</g>
<g fill="#336DB9" fill-opacity="0.09" stroke="None">
<path d="
M 524.00 383.00 
C 526.75 386.09 529.65 390.65 529.00 395.00
C 528.93 395.49 529.00 396.00 529.00 396.00
C 535.15 398.80 528.76 412.31 527.00 416.00
C 526.12 417.85 525.56 419.55 524.00 421.00
C 522.23 424.39 518.69 428.28 515.00 432.00
C 506.03 441.06 496.86 454.28 486.00 461.00
C 485.68 461.20 485.20 461.68 485.00 462.00
C 480.81 468.78 472.89 474.59 467.25 480.25 C 461.60 485.90 455.72 493.84 449.00 498.00
C 448.68 498.20 448.20 498.68 448.00 499.00
C 445.65 502.80 440.74 507.69 437.00 510.00
C 436.68 510.20 436.20 510.68 436.00 511.00
C 432.63 516.44 426.42 520.62 422.00 525.00
C 419.93 527.40 417.16 529.82 415.00 532.00
C 408.75 538.31 402.58 547.32 395.00 552.00
C 394.68 552.20 394.20 552.68 394.00 553.00
C 391.31 557.35 386.51 560.53 383.00 564.00
C 380.17 567.27 374.30 570.96 373.00 575.00
C 373.50 575.00 374.00 575.00 374.00 575.00
C 380.24 570.20 384.46 564.33 389.90 558.90 C 395.34 553.47 401.11 549.15 406.25 543.25 C 411.38 537.35 417.29 533.18 422.25 527.25 C 427.20 521.32 433.79 517.14 438.68 511.68 C 443.57 506.22 448.02 500.92 453.75 495.75 C 459.48 490.59 464.22 485.33 469.75 479.75 C 475.28 474.18 479.98 469.24 485.75 463.75 C 491.52 458.26 495.53 453.35 500.75 448.75 C 505.97 444.16 510.69 437.26 516.70 432.70 C 522.72 428.14 526.22 419.82 531.00 416.00
C 535.78 402.67 531.32 390.25 524.00 380.00
C 524.53 381.32 523.92 382.65 524.00 383.00 Z"/>
</g>
<g fill="#0D47A1" fill-opacity="1.00" stroke="None">
<path d="
M 633.00 424.00 
C 630.67 426.33 628.49 428.88 626.00 431.00
C 608.41 448.59 590.14 467.10 573.08 485.08 C 556.02 503.06 534.67 519.63 519.25 538.25 C 503.82 556.86 474.09 572.86 472.00 598.00
C 472.00 625.23 503.89 638.05 525.00 624.00
C 538.33 613.58 548.45 598.59 561.25 587.25 C 574.04 575.90 586.00 562.20 598.25 550.25 C 610.49 538.30 623.08 526.11 634.75 513.75 C 646.43 501.39 661.00 489.58 671.75 476.75 C 682.50 463.93 700.15 452.99 708.00 441.00
C 711.06 435.34 711.99 427.37 714.00 421.00
C 714.21 411.31 707.34 403.65 702.00 396.00
C 702.00 396.00 701.48 396.09 701.00 396.00
C 700.40 395.89 699.45 395.42 699.00 395.00
C 685.50 390.44 670.59 389.29 659.25 398.25 C 647.90 407.20 643.08 413.92 633.00 424.00 Z"/>
</g>
<g fill="#1E54A9" fill-opacity="0.82" stroke="None">
<path d="
M 529.00 407.00 
C 529.97 403.90 530.94 399.39 529.00 396.00
C 529.00 396.00 528.93 395.49 529.00 395.00
C 527.36 396.55 529.54 403.95 529.00 407.00 Z"/>
</g>
<g fill="#2357AA" fill-opacity="0.62" stroke="None">
<path d="
M 529.00 407.00 
C 528.06 410.03 527.46 413.94 527.00 416.00
C 528.76 412.31 535.15 398.80 529.00 396.00
C 530.94 399.39 529.97 403.90 529.00 407.00 Z"/>
</g>
<g fill="#3464B1" fill-opacity="0.78" stroke="None">
<path d="
M 714.00 421.00 
C 714.15 420.52 714.94 419.20 715.00 419.00
C 715.00 418.50 714.83 417.43 715.00 417.00
C 713.34 411.20 710.99 400.77 705.00 397.00
C 703.98 396.51 703.03 396.74 702.00 396.00
C 707.34 403.65 714.21 411.31 714.00 421.00 Z"/>
</g>
<g fill="#4B74B8" fill-opacity="0.32" stroke="None">
<path d="
M 715.00 417.00 
C 715.77 415.11 716.23 411.19 716.00 410.00
C 715.33 407.82 715.06 406.75 714.00 405.00
C 712.29 402.77 707.64 398.25 705.00 397.00
C 710.99 400.77 713.34 411.20 715.00 417.00 Z"/>
</g>
<g fill="#6F9FD1" fill-opacity="0.05" stroke="None">
<path d="
M 715.00 417.00 
C 714.83 417.43 715.00 418.50 715.00 419.00
C 715.00 419.50 715.01 420.50 715.00 421.00
C 716.13 416.90 717.47 414.80 716.00 410.00
C 716.23 411.19 715.77 415.11 715.00 417.00 Z"/>
</g>
<g fill="#2167BE" fill-opacity="0.12" stroke="None">
<path d="
M 413.00 432.00 
C 419.27 428.33 430.24 417.42 434.00 411.00
C 426.84 417.62 419.58 425.42 413.00 432.00 Z"/>
</g>
<g fill="#4378BD" fill-opacity="0.10" stroke="None">
<path d="
M 714.00 421.00 
C 711.99 427.37 711.06 435.34 708.00 441.00
C 707.63 441.69 707.14 442.21 707.00 443.00
C 706.91 443.48 707.00 444.00 707.00 444.00
C 705.22 448.95 699.37 452.05 696.00 456.00
C 678.11 476.94 658.32 494.12 638.75 513.75 C 619.18 533.39 599.62 555.12 581.00 572.00
C 580.33 573.06 580.45 573.93 580.00 575.00
C 601.59 550.23 631.34 528.20 651.30 503.30 C 671.27 478.41 714.04 458.05 715.00 421.00
C 715.01 420.50 715.00 419.50 715.00 419.00
C 714.94 419.20 714.15 420.52 714.00 421.00 Z"/>
</g>
<g fill="#1F54A6" fill-opacity="0.64" stroke="None">
<path d="
M 522.00 423.00 
C 507.88 441.47 488.38 456.38 472.25 473.25 C 456.11 490.12 439.03 508.05 421.75 523.75 C 404.47 539.45 389.99 560.68 371.00 574.00
C 370.76 574.16 371.00 575.00 371.00 575.00
C 371.25 575.25 372.00 575.00 372.00 575.00
C 372.50 575.00 373.00 575.00 373.00 575.00
C 374.30 570.96 380.17 567.27 383.00 564.00
C 386.36 560.11 389.98 556.13 394.00 553.00
C 394.20 552.68 394.68 552.20 395.00 552.00
C 400.62 544.78 408.14 537.92 415.00 532.00
C 417.16 529.82 419.93 527.40 422.00 525.00
C 426.23 520.10 430.93 514.95 436.00 511.00
C 436.20 510.68 436.68 510.20 437.00 510.00
C 440.12 506.00 444.05 502.08 448.00 499.00
C 448.20 498.68 448.68 498.20 449.00 498.00
C 458.71 485.54 472.59 471.67 485.00 462.00
C 485.20 461.68 485.68 461.20 486.00 461.00
C 494.07 450.63 505.12 440.53 515.00 432.00
C 518.69 428.28 522.23 424.39 524.00 421.00
C 523.24 421.71 522.69 422.09 522.00 423.00 Z"/>
</g>
<g fill="#1950A4" fill-opacity="0.87" stroke="None">
<path d="
M 371.00 574.00 
C 389.99 560.68 404.47 539.45 421.75 523.75 C 439.03 508.05 456.11 490.12 472.25 473.25 C 488.38 456.38 507.88 441.47 522.00 423.00
C 472.02 473.41 421.24 523.75 371.00 574.00 Z"/>
</g>
<g fill="#4273BD" fill-opacity="0.35" stroke="None">
<path d="
M 631.00 424.00 
C 628.72 428.65 622.94 431.80 620.00 436.00
C 621.76 434.24 624.15 432.58 626.00 431.00
C 628.49 428.88 630.67 426.33 633.00 424.00
C 633.60 424.00 630.81 422.95 631.00 423.00
C 631.00 423.00 631.20 423.60 631.00 424.00 Z"/>
</g>
<g fill="#5C95CE" fill-opacity="0.06" stroke="None">
<path d="
M 544.00 507.00 
C 550.00 507.47 556.56 494.10 562.75 489.75 C 568.94 485.40 576.00 475.73 582.25 470.25 C 588.50 464.77 595.59 456.47 602.00 451.00
C 603.81 449.45 605.90 447.03 608.00 446.00
C 608.40 445.80 609.00 446.00 609.00 446.00
C 611.26 442.77 615.45 437.73 619.00 436.00
C 619.40 435.80 620.00 436.00 620.00 436.00
C 622.94 431.80 628.72 428.65 631.00 424.00
C 615.20 435.02 598.83 451.59 585.10 465.10 C 571.36 478.61 555.94 490.78 544.00 507.00 Z"/>
</g>
<g fill="#2558A8" fill-opacity="0.90" stroke="None">
<path d="
M 620.00 436.00 
C 613.65 442.35 607.45 448.77 600.75 454.75 C 594.06 460.74 588.63 469.11 581.75 474.75 C 574.87 480.40 570.23 488.92 562.75 493.75 C 555.28 498.59 550.58 509.29 543.00 513.00
C 542.60 513.20 542.00 513.00 542.00 513.00
C 539.23 516.96 534.90 521.27 531.00 524.00
C 530.80 524.40 531.00 525.00 531.00 525.00
C 528.50 530.10 518.74 537.68 514.00 541.00
C 513.80 541.40 514.00 542.00 514.00 542.00
C 511.07 547.98 503.04 553.12 498.25 558.25 C 493.45 563.37 486.80 569.92 481.00 574.00
C 480.80 574.40 481.00 575.00 481.00 575.00
C 478.70 578.70 474.51 586.81 473.00 588.00
C 472.89 588.32 472.22 589.41 472.00 590.00
C 471.98 591.73 472.00 595.31 472.00 598.00
C 474.09 572.86 503.82 556.86 519.25 538.25 C 534.67 519.63 556.02 503.06 573.08 485.08 C 590.14 467.10 608.41 448.59 626.00 431.00
C 624.15 432.58 621.76 434.24 620.00 436.00 Z"/>
</g>
<g fill="#2358A8" fill-opacity="0.38" stroke="None">
<path d="
M 486.00 461.00 
C 496.86 454.28 506.03 441.06 515.00 432.00
C 505.12 440.53 494.07 450.63 486.00 461.00 Z"/>
</g>
<g fill="#4A79BB" fill-opacity="0.45" stroke="None">
<path d="
M 609.00 446.00 
C 612.60 444.23 616.78 439.18 619.00 436.00
C 615.45 437.73 611.26 442.77 609.00 446.00 Z"/>
</g>
<g fill="#3B6BB4" fill-opacity="0.75" stroke="None">
<path d="
M 609.00 446.00 
C 609.00 446.00 608.40 445.80 608.00 446.00
C 590.20 471.47 560.78 487.57 543.00 513.00
C 550.58 509.29 555.28 498.59 562.75 493.75 C 570.23 488.92 574.87 480.40 581.75 474.75 C 588.63 469.11 594.06 460.74 600.75 454.75 C 607.45 448.77 613.65 442.35 620.00 436.00
C 620.00 436.00 619.40 435.80 619.00 436.00
C 616.78 439.18 612.60 444.23 609.00 446.00 Z"/>
</g>
<g fill="#1E52A3" fill-opacity="0.91" stroke="None">
<path d="
M 525.00 624.00 
C 542.43 612.41 554.32 593.05 570.25 579.25 C 586.18 565.45 600.42 548.45 615.75 533.75 C 631.09 519.05 646.39 503.53 661.25 488.25 C 676.10 472.97 692.57 458.48 707.00 443.00
C 707.14 442.21 707.63 441.69 708.00 441.00
C 700.15 452.99 682.50 463.93 671.75 476.75 C 661.00 489.58 646.43 501.39 634.75 513.75 C 623.08 526.11 610.49 538.30 598.25 550.25 C 586.00 562.20 574.04 575.90 561.25 587.25 C 548.45 598.59 538.33 613.58 525.00 624.00 Z"/>
</g>
<g fill="#2A5BA7" fill-opacity="0.79" stroke="None">
<path d="
M 525.00 624.00 
C 503.89 638.05 472.00 625.23 472.00 598.00
C 472.00 595.31 471.98 591.73 472.00 590.00
C 470.23 594.85 469.78 601.08 471.00 606.00
C 473.21 614.90 480.17 621.95 488.00 627.00
C 489.39 627.90 491.96 628.88 493.00 630.00
C 505.02 630.13 511.98 635.19 523.00 627.00
C 545.63 610.17 562.52 584.72 584.25 566.25 C 605.98 547.77 623.35 523.54 645.25 505.25 C 667.15 486.95 683.69 460.27 707.00 444.00
C 707.00 444.00 706.91 443.48 707.00 443.00
C 692.57 458.48 676.10 472.97 661.25 488.25 C 646.39 503.53 631.09 519.05 615.75 533.75 C 600.42 548.45 586.18 565.45 570.25 579.25 C 554.32 593.05 542.43 612.41 525.00 624.00 Z"/>
</g>
<g fill="#2D5DA6" fill-opacity="0.64" stroke="None">
<path d="
M 523.00 627.00 
C 527.33 624.54 531.46 620.54 535.00 617.00
C 541.23 609.71 548.75 602.20 556.00 596.00
C 602.58 549.42 649.47 502.53 696.00 456.00
C 699.37 452.05 705.22 448.95 707.00 444.00
C 683.69 460.27 667.15 486.95 645.25 505.25 C 623.35 523.54 605.98 547.77 584.25 566.25 C 562.52 584.72 545.63 610.17 523.00 627.00 Z"/>
</g>
<g fill="#4673B9" fill-opacity="0.54" stroke="None">
<path d="
M 602.00 451.00 
C 581.82 471.18 560.67 491.28 541.25 512.25 C 521.83 533.22 497.18 551.32 480.00 574.00
C 479.28 574.95 478.65 576.06 478.00 577.00
C 478.76 576.24 480.33 575.73 481.00 575.00
C 481.00 575.00 480.80 574.40 481.00 574.00
C 484.37 567.11 492.19 563.78 497.25 558.25 C 502.30 552.72 507.89 546.25 514.00 542.00
C 514.00 542.00 513.80 541.40 514.00 541.00
C 516.96 534.94 525.75 528.67 531.00 525.00
C 531.00 525.00 530.80 524.40 531.00 524.00
C 532.65 520.62 538.68 514.62 542.00 513.00
C 542.00 513.00 542.60 513.20 543.00 513.00
C 560.78 487.57 590.20 471.47 608.00 446.00
C 605.90 447.03 603.81 449.45 602.00 451.00 Z"/>
</g>
<g fill="#4C78BB" fill-opacity="0.29" stroke="None">
<path d="
M 544.00 507.00 
C 543.80 507.27 543.13 507.65 543.00 508.00
C 538.13 521.60 519.28 529.74 510.75 541.75 C 502.23 553.77 486.63 562.92 478.00 575.00
C 478.46 574.50 479.57 574.41 480.00 574.00
C 497.18 551.32 521.83 533.22 541.25 512.25 C 560.67 491.28 581.82 471.18 602.00 451.00
C 595.59 456.47 588.50 464.77 582.25 470.25 C 576.00 475.73 568.94 485.40 562.75 489.75 C 556.56 494.10 550.00 507.47 544.00 507.00 Z"/>
</g>
<g fill="#305FA7" fill-opacity="0.41" stroke="None">
<path d="
M 556.00 596.00 
C 564.71 588.55 572.56 579.65 581.00 572.00
C 599.62 555.12 619.18 533.39 638.75 513.75 C 658.32 494.12 678.11 476.94 696.00 456.00
C 649.47 502.53 602.58 549.42 556.00 596.00 Z"/>
</g>
<g fill="#2358A7" fill-opacity="0.38" stroke="None">
<path d="
M 449.00 498.00 
C 455.72 493.84 461.60 485.90 467.25 480.25 C 472.89 474.59 480.81 468.78 485.00 462.00
C 472.59 471.67 458.71 485.54 449.00 498.00 Z"/>
</g>
<g fill="#46A6DF" fill-opacity="0.03" stroke="None">
<path d="
M 343.00 501.00 
C 344.65 499.62 346.43 499.01 348.00 497.00
C 346.00 496.84 344.82 498.82 343.00 501.00 Z"/>
</g>
<g fill="#3068B7" fill-opacity="0.29" stroke="None">
<path d="
M 348.00 497.00 
C 346.43 499.01 344.65 499.62 343.00 501.00
C 340.88 503.53 337.98 506.49 336.00 509.00
C 331.47 514.74 325.61 520.42 320.00 525.00
C 315.98 528.29 312.64 531.66 309.00 536.00
C 306.45 539.05 303.87 540.87 301.00 543.00
C 298.67 545.24 297.17 547.31 295.00 550.00
C 293.21 552.22 290.81 554.00 289.00 556.00
C 284.62 563.18 283.15 562.21 282.00 574.00 C 280.85 585.79 285.44 606.69 301.00 607.00
C 301.50 607.01 302.00 607.00 302.00 607.00
C 288.91 596.49 279.58 580.20 286.00 564.00
C 291.55 549.99 308.54 540.59 317.75 528.75 C 326.96 516.92 342.72 507.92 349.00 496.00
C 348.83 496.33 348.21 496.73 348.00 497.00 Z"/>
</g>
<g fill="#2256A8" fill-opacity="0.38" stroke="None">
<path d="
M 437.00 510.00 
C 440.74 507.69 445.65 502.80 448.00 499.00
C 444.05 502.08 440.12 506.00 437.00 510.00 Z"/>
</g>
<g fill="#6096CA" fill-opacity="0.06" stroke="None">
<path d="
M 468.00 592.00 
C 467.63 594.22 466.70 602.76 467.00 604.00
C 467.50 605.53 469.45 605.86 470.00 607.00
C 469.94 606.29 469.16 605.74 469.00 605.00
C 466.65 593.97 472.07 583.31 478.00 575.00
C 486.63 562.92 502.23 553.77 510.75 541.75 C 519.28 529.74 538.13 521.60 543.00 508.00
C 528.05 519.55 516.36 535.06 502.70 547.70 C 489.04 560.34 473.49 573.92 468.00 592.00 Z"/>
</g>
<g fill="#2769BA" fill-opacity="0.04" stroke="None">
<path d="
M 320.00 525.00 
C 325.61 520.42 331.47 514.74 336.00 509.00
C 330.97 514.03 325.21 518.90 320.00 525.00 Z"/>
</g>
<g fill="#2358A6" fill-opacity="0.38" stroke="None">
<path d="
M 422.00 525.00 
C 426.42 520.62 432.63 516.44 436.00 511.00
C 430.93 514.95 426.23 520.10 422.00 525.00 Z"/>
</g>
<g fill="#4371BA" fill-opacity="0.75" stroke="None">
<path d="
M 531.00 524.00 
C 534.90 521.27 539.23 516.96 542.00 513.00
C 538.68 514.62 532.65 520.62 531.00 524.00 Z"/>
</g>
<g fill="#3E6EB7" fill-opacity="0.76" stroke="None">
<path d="
M 514.00 541.00 
C 518.74 537.68 528.50 530.10 531.00 525.00
C 525.75 528.67 516.96 534.94 514.00 541.00 Z"/>
</g>
<g fill="#2358A6" fill-opacity="0.38" stroke="None">
<path d="
M 395.00 552.00 
C 402.58 547.32 408.75 538.31 415.00 532.00
C 408.14 537.92 400.62 544.78 395.00 552.00 Z"/>
</g>
<g fill="#2D75B6" fill-opacity="0.04" stroke="None">
<path d="
M 301.00 543.00 
C 303.87 540.87 306.45 539.05 309.00 536.00
C 306.58 538.28 303.56 540.54 301.00 543.00 Z"/>
</g>
<g fill="#3B6BB4" fill-opacity="0.75" stroke="None">
<path d="
M 481.00 574.00 
C 486.80 569.92 493.45 563.37 498.25 558.25 C 503.04 553.12 511.07 547.98 514.00 542.00
C 507.89 546.25 502.30 552.72 497.25 558.25 C 492.19 563.78 484.37 567.11 481.00 574.00 Z"/>
</g>
<g fill="#4B9BD1" fill-opacity="0.04" stroke="None">
<path d="
M 289.00 556.00 
C 290.81 554.00 293.21 552.22 295.00 550.00
C 292.55 552.14 290.95 552.80 289.00 556.00 Z"/>
</g>
<g fill="#2457A7" fill-opacity="0.38" stroke="None">
<path d="
M 383.00 564.00 
C 386.51 560.53 391.31 557.35 394.00 553.00
C 389.98 556.13 386.36 560.11 383.00 564.00 Z"/>
</g>
<g fill="#4479BA" fill-opacity="0.18" stroke="None">
<path d="
M 556.00 596.00 
C 548.75 602.20 541.23 609.71 535.00 617.00
C 531.12 621.54 526.84 625.40 523.00 627.00
C 511.98 635.19 505.02 630.13 493.00 630.00
C 492.84 630.00 492.35 630.91 492.00 631.00
C 492.03 632.44 495.21 633.64 496.00 634.00
C 498.03 634.59 499.99 635.66 502.00 636.00
C 504.20 636.16 510.53 634.23 512.00 634.00
C 528.79 631.34 538.71 616.86 550.00 605.00
C 551.38 602.87 555.16 599.34 557.00 598.00
C 564.20 590.51 572.88 583.17 580.00 575.00
C 580.45 573.93 580.33 573.06 581.00 572.00
C 572.56 579.65 564.71 588.55 556.00 596.00 Z"/>
</g>
<g fill="#1772FE" fill-opacity="1.00" stroke="None">
<path d="
M 306.00 608.00 
C 318.30 625.57 337.46 638.09 351.75 654.25 C 366.04 670.40 383.17 685.18 398.25 700.75 C 413.32 716.33 428.60 731.66 444.25 746.75 C 459.89 761.84 475.71 786.11 499.00 783.00
C 509.48 781.60 522.83 776.70 526.00 765.00
C 528.82 754.57 527.90 745.44 527.00 736.00
C 524.87 730.33 519.91 726.06 514.25 720.75 C 508.59 715.44 503.74 710.09 498.25 704.75 C 492.75 699.41 487.68 694.12 482.25 688.75 C 476.81 683.38 471.14 677.62 465.75 672.25 C 460.37 666.88 455.05 661.59 449.75 656.25 C 444.45 650.91 438.95 645.57 433.75 640.25 C 428.56 634.93 422.21 628.98 417.25 623.75 C 412.29 618.53 405.64 612.74 401.25 607.75 C 396.86 602.77 388.43 596.26 385.25 591.75 C 382.06 587.24 368.60 579.05 371.00 575.00
C 371.00 575.00 370.76 574.16 371.00 574.00
C 362.56 582.44 353.20 591.20 344.75 599.75 C 336.30 608.31 317.21 615.06 306.00 608.00 Z"/>
</g>
<g fill="#4571B6" fill-opacity="0.40" stroke="None">
<path d="
M 478.00 575.00 
C 472.07 583.31 466.65 593.97 469.00 605.00
C 469.22 605.48 470.79 605.67 471.00 606.00
C 469.78 601.08 470.23 594.85 472.00 590.00
C 472.22 589.41 472.89 588.32 473.00 588.00
C 474.44 583.78 475.35 580.82 478.00 577.00
C 478.65 576.06 479.28 574.95 480.00 574.00
C 479.57 574.41 478.46 574.50 478.00 575.00 Z"/>
</g>
<g fill="#549DFC" fill-opacity="0.36" stroke="None">
<path d="
M 527.00 736.00 
C 531.02 746.71 532.46 755.38 526.00 765.00
C 522.83 776.70 509.48 781.60 499.00 783.00
C 497.83 783.41 493.37 786.87 490.98 785.02 C 488.59 783.17 482.65 782.30 482.00 783.00
C 482.21 783.11 482.00 784.00 482.00 784.00
C 482.12 784.83 493.72 791.14 497.90 787.90 C 502.09 784.66 506.43 788.50 512.92 782.92 C 519.40 777.34 527.44 770.09 530.00 764.00
C 532.89 753.30 531.68 744.38 528.00 735.00
C 525.46 724.03 514.21 716.10 506.10 707.90 C 497.99 699.70 490.62 692.13 482.23 683.77 C 473.84 675.41 466.37 666.39 457.00 661.00
C 450.08 650.13 442.11 643.57 432.75 634.25 C 423.39 624.93 415.20 616.63 406.25 607.75 C 397.29 598.88 388.74 588.87 380.00 583.00
C 377.00 580.98 374.03 577.90 372.00 575.00
C 372.00 575.00 371.25 575.25 371.00 575.00
C 368.60 579.05 382.06 587.24 385.25 591.75 C 388.43 596.26 396.86 602.77 401.25 607.75 C 405.64 612.74 412.29 618.53 417.25 623.75 C 422.21 628.98 428.56 634.93 433.75 640.25 C 438.95 645.57 444.45 650.91 449.75 656.25 C 455.05 661.59 460.37 666.88 465.75 672.25 C 471.14 677.62 476.81 683.38 482.25 688.75 C 487.68 694.12 492.75 699.41 498.25 704.75 C 503.74 710.09 508.59 715.44 514.25 720.75 C 519.91 726.06 524.87 730.33 527.00 736.00 Z"/>
</g>
<g fill="#59B0FF" fill-opacity="0.04" stroke="None">
<path d="
M 380.00 583.00 
C 378.37 581.43 375.56 577.23 374.00 575.00
C 374.00 575.00 373.50 575.00 373.00 575.00
C 373.00 575.00 372.50 575.00 372.00 575.00
C 374.03 577.90 377.00 580.98 380.00 583.00 Z"/>
</g>
<g fill="#3765AC" fill-opacity="0.69" stroke="None">
<path d="
M 478.00 577.00 
C 475.35 580.82 474.44 583.78 473.00 588.00
C 474.51 586.81 478.70 578.70 481.00 575.00
C 480.33 575.73 478.76 576.24 478.00 577.00 Z"/>
</g>
<g fill="#F3FFFF" fill-opacity="0.00" stroke="None">
<path d="
M 467.00 604.00 
C 466.70 602.76 467.63 594.22 468.00 592.00
C 467.17 594.74 465.87 600.58 467.00 604.00 Z"/>
</g>
<g fill="#3593C5" fill-opacity="0.04" stroke="None">
<path d="
M 550.00 605.00 
C 552.38 602.50 554.72 600.38 557.00 598.00
C 555.16 599.34 551.38 602.87 550.00 605.00 Z"/>
</g>
<g fill="#4276B8" fill-opacity="0.21" stroke="None">
<path d="
M 470.00 607.00 
C 470.73 616.24 478.12 624.54 486.00 630.00
C 486.00 630.00 486.89 628.90 487.00 629.00
C 486.90 628.91 488.08 627.33 488.00 627.00
C 480.17 621.95 473.21 614.90 471.00 606.00
C 470.79 605.67 469.22 605.48 469.00 605.00
C 469.16 605.74 469.94 606.29 470.00 607.00 Z"/>
</g>
<g fill="#67AEFB" fill-opacity="0.05" stroke="None">
<path d="
M 423.00 729.00 
C 418.52 719.13 405.89 713.50 399.25 704.75 C 392.61 696.01 382.10 688.67 374.75 680.25 C 367.40 671.83 358.35 664.55 350.75 656.25 C 343.15 647.95 333.76 640.44 326.25 631.75 C 318.74 623.07 308.51 616.33 302.00 607.00
C 302.00 607.00 301.50 607.01 301.00 607.00
C 304.08 616.86 318.36 623.31 324.90 632.10 C 331.44 640.89 341.76 647.97 349.25 656.75 C 356.74 665.53 366.08 672.57 374.08 680.92 C 382.08 689.26 390.42 697.40 398.25 705.75 C 406.07 714.10 415.27 721.04 423.00 729.00 Z"/>
</g>
<g fill="#478BF2" fill-opacity="0.32" stroke="None">
<path d="
M 423.00 729.00 
C 423.49 730.08 423.29 730.14 424.00 731.00
C 432.87 736.06 441.44 748.09 450.25 755.75 C 459.06 763.42 467.99 776.02 477.00 780.00
C 468.18 772.89 458.41 764.27 450.75 755.25 C 443.09 746.22 431.18 739.01 425.00 729.00
C 424.80 728.68 424.32 728.20 424.00 728.00
C 409.91 719.29 397.50 702.00 385.75 690.25 C 374.00 678.50 356.67 666.03 348.00 652.00
C 347.80 651.68 347.32 651.20 347.00 651.00
C 343.20 648.65 338.31 643.74 336.00 640.00
C 335.80 639.68 335.32 639.20 335.00 639.00
C 328.86 635.21 323.97 628.25 318.75 623.25 C 313.53 618.24 307.09 612.86 303.00 607.00
C 303.00 607.00 302.30 607.24 302.00 607.00
C 308.51 616.33 318.74 623.07 326.25 631.75 C 333.76 640.44 343.15 647.95 350.75 656.25 C 358.35 664.55 367.40 671.83 374.75 680.25 C 382.10 688.67 392.61 696.01 399.25 704.75 C 405.89 713.50 418.52 719.13 423.00 729.00 Z"/>
</g>
<g fill="#3A84F3" fill-opacity="0.64" stroke="None">
<path d="
M 335.00 639.00 
C 326.55 628.16 314.99 617.32 305.00 608.00
C 304.16 607.85 303.80 607.14 303.00 607.00
C 307.09 612.86 313.53 618.24 318.75 623.25 C 323.97 628.25 328.86 635.21 335.00 639.00 Z"/>
</g>
<g fill="#2C7EF9" fill-opacity="0.85" stroke="None">
<path d="
M 335.00 639.00 
C 335.32 639.20 335.80 639.68 336.00 640.00
C 340.01 643.12 343.92 647.05 347.00 651.00
C 347.32 651.20 347.80 651.68 348.00 652.00
C 361.83 662.77 373.82 677.33 386.25 689.75 C 398.68 702.17 413.27 714.23 424.00 728.00
C 424.32 728.20 424.80 728.68 425.00 729.00
C 443.98 743.78 458.24 765.48 477.00 780.00
C 478.61 781.25 480.24 782.06 482.00 783.00
C 482.65 782.30 488.59 783.17 490.98 785.02 C 493.37 786.87 497.83 783.41 499.00 783.00
C 475.71 786.11 459.89 761.84 444.25 746.75 C 428.60 731.66 413.32 716.33 398.25 700.75 C 383.17 685.18 366.04 670.40 351.75 654.25 C 337.46 638.09 318.30 625.57 306.00 608.00
C 306.00 608.00 305.48 608.09 305.00 608.00
C 314.99 617.32 326.55 628.16 335.00 639.00 Z"/>
</g>
<g fill="#3463A9" fill-opacity="0.42" stroke="None">
<path d="
M 523.00 627.00 
C 526.84 625.40 531.12 621.54 535.00 617.00
C 531.46 620.54 527.33 624.54 523.00 627.00 Z"/>
</g>
<g fill="#4975B8" fill-opacity="0.41" stroke="None">
<path d="
M 487.00 629.00 
C 488.78 629.96 489.09 631.72 492.00 631.00
C 492.35 630.91 492.84 630.00 493.00 630.00
C 491.96 628.88 489.39 627.90 488.00 627.00
C 488.08 627.33 486.90 628.91 487.00 629.00 Z"/>
</g>
<g fill="#6EA2C0" fill-opacity="0.04" stroke="None">
<path d="
M 486.00 630.00 
C 489.26 632.26 491.98 632.83 496.00 634.00
C 495.21 633.64 492.03 632.44 492.00 631.00
C 489.09 631.72 488.78 629.96 487.00 629.00
C 486.89 628.90 486.00 630.00 486.00 630.00 Z"/>
</g>
<g fill="#6EABE5" fill-opacity="0.04" stroke="None">
<path d="
M 502.00 636.00 
C 506.36 636.74 508.93 634.89 512.00 634.00
C 510.53 634.23 504.20 636.16 502.00 636.00 Z"/>
</g>
<g fill="#3B85F4" fill-opacity="0.64" stroke="None">
<path d="
M 347.00 651.00 
C 343.92 647.05 340.01 643.12 336.00 640.00
C 338.31 643.74 343.20 648.65 347.00 651.00 Z"/>
</g>
<g fill="#3B85F4" fill-opacity="0.64" stroke="None">
<path d="
M 424.00 728.00 
C 413.27 714.23 398.68 702.17 386.25 689.75 C 373.82 677.33 361.83 662.77 348.00 652.00
C 356.67 666.03 374.00 678.50 385.75 690.25 C 397.50 702.00 409.91 719.29 424.00 728.00 Z"/>
</g>
<g fill="#3B85F5" fill-opacity="0.63" stroke="None">
<path d="
M 477.00 780.00 
C 458.24 765.48 443.98 743.78 425.00 729.00
C 431.18 739.01 443.09 746.22 450.75 755.25 C 458.41 764.27 468.18 772.89 477.00 780.00 Z"/>
</g>
<g fill="#6CAFFC" fill-opacity="0.06" stroke="None">
<path d="
M 424.00 731.00 
C 429.17 737.24 436.43 744.04 442.25 749.75 C 448.07 755.47 454.68 763.14 460.77 768.23 C 466.86 773.32 472.97 784.63 482.00 784.00
C 482.00 784.00 482.21 783.11 482.00 783.00
C 480.24 782.06 478.61 781.25 477.00 780.00
C 467.99 776.02 459.06 763.42 450.25 755.75 C 441.44 748.09 432.87 736.06 424.00 731.00 Z"/>
</g>
<g fill="#BFD3FF" fill-opacity="0.02" stroke="None">
<path d="
M 530.00 764.00 
C 534.52 753.25 533.03 743.83 528.00 735.00
C 531.68 744.38 532.89 753.30 530.00 764.00 Z"/>
</g>
<g fill="#3987FB" fill-opacity="0.74" stroke="None">
<path d="
M 526.00 765.00 
C 532.46 755.38 531.02 746.71 527.00 736.00
C 527.90 745.44 528.82 754.57 526.00 765.00 Z"/>
</g>
</svg>